# Blender v2.77 (sub 0) OBJ File: 'floor.blend'
# www.blender.org
mtllib floor.mtl
o Cube
v 10.209951 0.427654 -4.094334
v 10.209951 0.427654 4.094331
v -0.019373 0.306280 4.094330
v -0.019370 0.306280 -4.094336
v 10.209953 0.122211 -4.094332
v 10.209949 0.122211 4.094334
v -0.019374 0.000836 4.094330
v -0.019371 0.000836 -4.094334
v 15.257362 0.814723 -4.094333
v 15.257362 0.814723 4.094332
v 15.257363 0.509280 -4.094331
v 15.257359 0.509280 4.094335
v 20.908619 1.974696 -4.094332
v 20.908619 1.974696 4.094333
v 20.908621 1.669252 -4.094330
v 20.908617 1.669252 4.094336
v 22.086018 9.222597 -4.094332
v 22.086018 9.222597 4.094333
v 22.086020 2.120208 -4.094330
v 22.086016 2.120208 4.094336
v 20.619444 2.116072 -4.094332
v 20.425283 2.116072 4.094333
v 21.562546 9.247385 -4.094332
v 21.359503 9.247385 4.094333
v -10.200556 0.427654 -4.094334
v -10.200556 0.427654 4.094331
v 0.028768 0.306280 4.094330
v 0.028766 0.306280 -4.094336
v -10.200558 0.122211 -4.094332
v -10.200553 0.122211 4.094334
v 0.028769 0.000836 4.094330
v 0.028767 0.000836 -4.094334
v -15.247965 0.814723 -4.094333
v -15.247965 0.814723 4.094332
v -15.247966 0.509280 -4.094331
v -15.247961 0.509280 4.094335
v -20.899223 1.974696 -4.094332
v -20.899223 1.974696 4.094333
v -20.899223 1.669252 -4.094330
v -20.899220 1.669252 4.094336
v -22.076620 9.222597 -4.094332
v -22.076620 9.222597 4.094333
v -22.076624 2.120208 -4.094330
v -22.076618 2.120208 4.094336
v -20.610046 2.116072 -4.094332
v -20.415886 2.116072 4.094333
v -21.553152 9.247385 -4.094332
v -21.350107 9.247385 4.094333
v 19.801674 9.937251 -4.094332
v 19.801674 9.937251 4.094334
v 18.615311 9.631069 -4.094332
v 18.615311 9.631069 4.094334
v -19.792276 9.937251 -4.094332
v -19.792276 9.937251 4.094334
v -18.605913 9.631069 -4.094332
v -18.605913 9.631069 4.094334
v 16.132566 10.771488 -4.094332
v 16.132566 10.771488 4.094334
v 15.166078 10.465306 -4.094332
v 15.166078 10.465306 4.094334
v -16.123169 10.771488 -4.094332
v -16.123169 10.771488 4.094334
v -15.156682 10.465306 -4.094332
v -15.156682 10.465306 4.094334
v 5.463117 11.705503 -4.094332
v 5.463117 11.705503 4.094334
v 5.136013 11.237142 -4.094332
v 5.136013 11.237142 4.094334
v -5.453722 11.705503 -4.094332
v -5.453722 11.705503 4.094334
v -5.126619 11.237142 -4.094332
v -5.126619 11.237142 4.094334
v -0.210784 11.735798 -4.094332
v -0.210784 11.735798 4.094334
v -0.317244 11.510812 -4.094332
v -0.317244 11.510812 4.094334
v 0.089096 11.735798 -4.094332
v 0.089096 11.735798 4.094334
v 0.195556 11.510812 -4.094332
v 0.195556 11.510812 4.094334
v 20.066078 2.116072 0.000001
v 19.033146 9.247385 0.000001
v 21.090994 5.681728 -4.094332
v 20.892393 5.681728 4.094333
v -20.056683 2.116072 0.000001
v -19.023748 9.247385 0.000001
v -21.081598 5.681728 -4.094332
v -20.882996 5.681728 4.094333
v -18.714800 5.681728 0.000001
v 18.724197 5.681728 0.000000
v 10.756410 0.774889 -0.000001
v 5.095291 0.366967 -4.094335
v 5.095289 0.366967 4.094331
v -0.020660 0.673205 -0.000002
v 16.074091 1.099162 -0.000001
v 12.733657 0.621189 4.094332
v 12.733657 0.621189 -4.094334
v 22.027956 2.070947 0.000001
v 18.082991 1.394710 -4.094333
v 18.082991 1.394710 4.094333
v -10.747012 0.774889 -0.000001
v -5.085895 0.366967 -4.094335
v -5.085893 0.366967 4.094331
v 0.030056 0.673205 -0.000002
v -16.064693 1.099162 -0.000001
v -12.724261 0.621189 4.094332
v -12.724261 0.621189 -4.094334
v -22.018559 2.070947 0.000001
v -18.073593 1.394710 -4.094333
v -18.073593 1.394710 4.094333
v -19.041626 1.585054 0.000000
v -13.405855 0.937025 -0.000001
v -5.358479 0.724047 -0.000002
v 19.051022 1.585054 -0.000000
v 13.415252 0.937025 -0.000001
v 5.367875 0.724047 -0.000002
v 20.196325 9.247385 2.047167
v -20.186928 9.247385 2.047167
v 16.859140 9.559600 0.000001
v -16.852392 9.559600 0.000001
v -20.079531 9.439227 -4.094332
v 20.088928 9.439227 -4.094332
v -19.978008 9.439227 4.094334
v 19.987406 9.439227 4.094334
v 13.735146 10.393837 0.000001
v -13.728398 10.393837 0.000001
v -16.881296 10.048187 4.094334
v 16.890692 10.048187 4.094334
v -16.881296 10.048187 -4.094332
v 16.890692 10.048187 -4.094332
v 4.650844 11.165672 0.000001
v -4.644097 11.165672 0.000001
v 10.151046 10.851224 -4.094332
v 10.151046 10.851224 4.094334
v -10.141650 10.851224 4.094334
v -10.141650 10.851224 -4.094332
v -0.288211 11.439342 0.000001
v 0.176235 11.439342 0.000001
v -2.465531 11.373977 -4.094332
v -2.465531 11.373977 4.094334
v 2.409385 11.373977 -4.094332
v 2.409385 11.373977 4.094334
v 20.297846 9.247385 -2.047165
v -20.288448 9.247385 -2.047165
v 2.181316 11.302507 0.000001
v -9.186248 10.779755 0.000001
v -2.233931 11.302507 0.000001
v 15.297143 9.976718 0.000001
v -15.290395 9.976718 0.000001
v 9.192995 10.779755 0.000001
vt 0.1118 0.7779
vt 0.1118 0.7301
vt 0.1414 0.7301
vt 0.1414 0.7755
vt 0.3112 0.8343
vt 0.3704 0.8343
vt 0.3704 0.9251
vt 0.3112 0.9251
vt 0.3112 0.7895
vt 0.3704 0.7895
vt 0.1057 0.6240
vt 0.1057 0.5786
vt 0.1057 0.5332
vt 0.1079 0.5332
vt 0.1079 0.6240
vt 0.1758 0.9229
vt 0.1732 0.8908
vt 0.1758 0.8586
vt 0.1780 0.8586
vt 0.1780 0.9229
vt 0.1928 0.6376
vt 0.1928 0.7284
vt 0.1905 0.7284
vt 0.1905 0.6830
vt 0.1905 0.6376
vt 0.3112 0.7394
vt 0.3704 0.7394
vt 0.1055 0.6688
vt 0.1033 0.6688
vt 0.1045 0.6464
vt 0.1894 0.6152
vt 0.1882 0.5928
vt 0.1904 0.5928
vt 0.1118 0.8494
vt 0.1118 0.8730
vt 0.0822 0.8657
vt 0.0822 0.8433
vt 0.1803 0.5425
vt 0.1280 0.5315
vt 0.1793 0.5320
vt 0.1825 0.5425
vt 0.1842 0.5676
vt 0.0976 0.7190
vt 0.0954 0.7191
vt 0.0993 0.6939
vt 0.1118 0.8994
vt 0.1118 0.9258
vt 0.0822 0.9159
vt 0.0822 0.8908
vt 0.1414 0.8586
vt 0.1414 0.7944
vt 0.1924 0.7944
vt 0.1924 0.8586
vt 0.0944 0.7295
vt 0.0431 0.7301
vt 0.1277 0.5361
vt 0.1262 0.5492
vt 0.1247 0.5622
vt 0.1226 0.5517
vt 0.3112 0.7289
vt 0.3704 0.7289
vt 0.3418 0.9573
vt 0.3138 0.9573
vt 0.3125 0.9412
vt 0.3112 0.9251
vt 0.3373 0.9251
vt 0.1792 0.5451
vt 0.1535 0.5406
vt 0.1619 0.8593
vt 0.1658 0.8586
vt 0.1732 0.8899
vt 0.1732 0.9224
vt 0.1708 0.9228
vt 0.1573 0.8925
vt 0.0428 0.7237
vt 0.0686 0.7192
vt 0.0943 0.7148
vt 0.3921 0.6793
vt 0.4217 0.6817
vt 0.4217 0.7271
vt 0.3921 0.7272
vt 0.0230 0.8209
vt 0.0230 0.7301
vt 0.0822 0.7301
vt 0.0822 0.8209
vt 0.0822 0.8657
vt 0.0230 0.8657
vt 0.2754 0.6376
vt 0.2776 0.6376
vt 0.2776 0.7284
vt 0.2754 0.7284
vt 0.2754 0.6830
vt 0.1806 0.8586
vt 0.1828 0.8586
vt 0.1828 0.9229
vt 0.1806 0.9229
vt 0.1780 0.8908
vt 0.3625 0.6228
vt 0.3603 0.6228
vt 0.3603 0.5774
vt 0.3603 0.5320
vt 0.3625 0.5320
vt 0.0822 0.9158
vt 0.0230 0.9158
vt 0.2742 0.6152
vt 0.2731 0.5928
vt 0.2753 0.5928
vt 0.3601 0.6676
vt 0.3579 0.6676
vt 0.3591 0.6452
vt 0.3921 0.6079
vt 0.3625 0.6140
vt 0.3625 0.5916
vt 0.3921 0.5843
vt 0.3500 0.7179
vt 0.3522 0.7179
vt 0.3491 0.7284
vt 0.2977 0.7289
vt 0.3540 0.6928
vt 0.2691 0.5676
vt 0.2651 0.5425
vt 0.2674 0.5425
vt 0.3921 0.5579
vt 0.3625 0.5665
vt 0.3625 0.5414
vt 0.3921 0.5315
vt 0.1414 0.7301
vt 0.1924 0.7301
vt 0.1924 0.7944
vt 0.1414 0.7944
vt 0.2128 0.5315
vt 0.2642 0.5320
vt 0.2975 0.7243
vt 0.2923 0.7087
vt 0.2945 0.6982
vt 0.2960 0.7112
vt 0.0822 0.9263
vt 0.0230 0.9263
vt 0.4012 0.9553
vt 0.3965 0.9874
vt 0.3704 0.9874
vt 0.3718 0.9713
vt 0.3731 0.9553
vt 0.3232 0.7198
vt 0.3490 0.7153
vt 0.1460 0.9222
vt 0.1414 0.8889
vt 0.1550 0.8586
vt 0.1573 0.8590
vt 0.1573 0.8915
vt 0.1499 0.9228
vt 0.2641 0.5468
vt 0.2383 0.5423
vt 0.2126 0.5379
vt 0.2520 0.7492
vt 0.3112 0.7492
vt 0.3112 0.7818
vt 0.2520 0.7818
vt 0.2075 0.5517
vt 0.2096 0.5622
vt 0.2064 0.5775
vt 0.2033 0.5928
vt 0.2011 0.5842
vt 0.2520 0.7289
vt 0.3112 0.7289
vt 0.1928 0.7289
vt 0.2520 0.7289
vt 0.2520 0.7492
vt 0.1928 0.7492
vt 0.4217 0.5333
vt 0.4365 0.5436
vt 0.4513 0.5539
vt 0.4661 0.5427
vt 0.4809 0.5315
vt 0.4809 0.5445
vt 0.4809 0.5576
vt 0.4513 0.5732
vt 0.4217 0.5576
vt 0.4217 0.5454
vt 0.4296 0.9231
vt 0.4148 0.9119
vt 0.4000 0.9007
vt 0.3852 0.9110
vt 0.3704 0.9213
vt 0.3704 0.9092
vt 0.3704 0.8970
vt 0.4000 0.8814
vt 0.4296 0.8970
vt 0.4296 0.9101
vt 0.2111 0.5501
vt 0.0377 0.7099
vt 0.0398 0.6993
vt 0.0413 0.7115
vt 0.4000 0.8133
vt 0.3704 0.8219
vt 0.3704 0.7773
vt 0.4000 0.7730
vt 0.1163 0.5842
vt 0.1184 0.5928
vt 0.1152 0.6372
vt 0.1119 0.6817
vt 0.1086 0.6788
vt 0.0314 0.6774
vt 0.0335 0.6688
vt 0.0367 0.6841
vt 0.2520 0.7818
vt 0.1928 0.7818
vt 0.2860 0.6762
vt 0.2881 0.6676
vt 0.2913 0.6829
vt 0.4513 0.5870
vt 0.4809 0.5729
vt 0.4809 0.5882
vt 0.4513 0.6009
vt 0.1215 0.5775
vt 0.4000 0.8675
vt 0.3704 0.8817
vt 0.3704 0.8664
vt 0.4000 0.8537
vt 0.4513 0.7029
vt 0.4809 0.7009
vt 0.4809 0.7245
vt 0.4513 0.7243
vt 0.2817 0.5787
vt 0.2783 0.5816
vt 0.2776 0.5324
vt 0.2792 0.5315
vt 0.2805 0.5551
vt 0.2000 0.6372
vt 0.1968 0.6817
vt 0.1935 0.6788
vt 0.3112 0.8765
vt 0.2520 0.8765
vt 0.0237 0.5828
vt 0.0271 0.5798
vt 0.0303 0.6243
vt 0.2520 0.8765
vt 0.1928 0.8765
vt 0.2849 0.6231
vt 0.4513 0.6412
vt 0.4809 0.6327
vt 0.4809 0.6773
vt 0.4513 0.6815
vt 0.1850 0.8586
vt 0.1867 0.8586
vt 0.1872 0.8908
vt 0.1867 0.9229
vt 0.1850 0.9229
vt 0.1850 0.8586
vt 0.1850 0.9229
vt 0.1833 0.9229
vt 0.1828 0.8908
vt 0.1833 0.8586
vt 0.1107 0.7059
vt 0.1095 0.7301
vt 0.1079 0.7291
vt 0.4000 0.7511
vt 0.3704 0.7531
vt 0.3704 0.7289
vt 0.4000 0.7292
vt 0.1956 0.7053
vt 0.1944 0.7289
vt 0.1928 0.7280
vt 0.3112 0.9257
vt 0.2520 0.9257
vt 0.0230 0.5324
vt 0.0246 0.5315
vt 0.0258 0.5556
vt 0.2520 0.9268
vt 0.1928 0.9268
vt 0.3967 0.9231
vt 0.3719 0.9392
vt 0.3706 0.9231
vt 0.4228 0.9231
vt 0.4232 0.9553
vt 0.4226 0.9874
vt 0.3639 0.9573
vt 0.3633 0.9251
vt 0.3635 0.9894
vt 0.3375 0.9894
vt 0.3114 0.9894
vt 0.3126 0.9733
vt 0.4217 0.5665
vt 0.4217 0.5414
vt 0.4217 0.5916
vt 0.4217 0.6140
vt 0.4217 0.6364
vt 0.3921 0.6315
vt 0.3625 0.6364
vt 0.3625 0.6817
vt 0.3625 0.7271
vt 0.1414 0.8657
vt 0.1414 0.8908
vt 0.1414 0.9159
vt 0.1118 0.8258
vt 0.0822 0.8209
vt 0.1414 0.8209
vt 0.1414 0.8433
vt 0.0822 0.7755
vt 0.0822 0.7301
vt 0.4296 0.7531
vt 0.4296 0.7289
vt 0.4296 0.7773
vt 0.4217 0.6327
vt 0.4217 0.6773
vt 0.4217 0.5882
vt 0.4217 0.7009
vt 0.4217 0.7245
vt 0.4296 0.8817
vt 0.4296 0.8664
vt 0.4217 0.5729
vt 0.4296 0.8219
vn -0.0106 0.9999 0.0000
vn -0.6919 0.7220 0.0000
vn -0.5852 0.5450 0.6004
vn -0.0072 0.6759 0.7370
vn 0.0316 -0.7135 -0.6999
vn 0.0316 -0.7135 0.6999
vn -0.5740 -0.5816 0.5765
vn -0.5740 -0.5816 -0.5765
vn 0.1002 -0.7137 -0.6932
vn 0.1002 -0.7137 0.6932
vn -0.0249 0.6708 0.7412
vn -0.5852 0.5450 -0.6004
vn -0.0072 0.6759 -0.7370
vn -0.0249 0.6708 -0.7412
vn 0.2031 -0.6955 -0.6892
vn 0.2031 -0.6955 0.6892
vn -0.0796 0.6725 0.7358
vn -0.0468 0.6818 0.7300
vn -0.0468 0.6818 -0.7300
vn -0.0796 0.6725 -0.7358
vn -0.0685 0.9977 0.0000
vn -0.1320 0.9912 0.0000
vn -0.0843 0.0022 -0.9964
vn 0.6476 0.4760 -0.5950
vn 0.6597 -0.4537 -0.5990
vn -0.1274 0.6936 -0.7089
vn -0.0822 -0.0013 0.9966
vn -0.1274 0.6937 0.7089
vn -0.1806 0.9835 0.0000
vn -0.9987 -0.0491 -0.0055
vn 0.6476 0.4760 0.5950
vn 0.6597 -0.4537 0.5990
vn -0.2484 -0.1522 -0.9566
vn -0.0970 -0.6997 -0.7078
vn -0.1252 -0.6918 -0.7111
vn 0.1863 0.6912 -0.6982
vn -0.9998 -0.0065 -0.0191
vn -0.8692 -0.4942 -0.0161
vn -0.6925 -0.6263 -0.3580
vn -0.5309 -0.0035 -0.8474
vn -0.4677 -0.5391 -0.7004
vn -0.4966 -0.5578 0.6650
vn -0.7052 -0.7088 -0.0162
vn -0.2567 -0.1593 0.9532
vn -0.5476 -0.0040 0.8367
vn 0.0106 0.9999 0.0000
vn 0.0072 0.6759 0.7370
vn 0.5852 0.5450 0.6004
vn 0.6919 0.7220 0.0000
vn -0.0316 -0.7135 -0.6999
vn 0.5740 -0.5816 -0.5765
vn 0.5740 -0.5816 0.5765
vn -0.0316 -0.7135 0.6999
vn -0.1002 -0.7137 0.6932
vn -0.1002 -0.7137 -0.6932
vn 0.0249 0.6708 0.7412
vn 0.5852 0.5450 -0.6004
vn 0.0249 0.6708 -0.7412
vn 0.0072 0.6759 -0.7370
vn -0.2031 -0.6955 0.6892
vn -0.2031 -0.6955 -0.6892
vn 0.0468 0.6818 0.7300
vn 0.0796 0.6725 0.7358
vn 0.0796 0.6725 -0.7358
vn 0.0468 0.6818 -0.7300
vn 0.0685 0.9977 0.0000
vn 0.1320 0.9912 0.0000
vn 0.0843 0.0022 -0.9964
vn -0.6597 -0.4537 -0.5990
vn -0.6476 0.4760 -0.5950
vn 0.1274 0.6936 -0.7090
vn 0.1274 0.6936 0.7090
vn 0.0822 -0.0013 0.9966
vn 0.1806 0.9835 0.0000
vn 0.9987 -0.0491 -0.0055
vn -0.6597 -0.4537 0.5990
vn -0.6476 0.4760 0.5950
vn 0.2484 -0.1522 -0.9566
vn -0.1863 0.6912 -0.6982
vn 0.1253 -0.6918 -0.7111
vn 0.0970 -0.6997 -0.7078
vn 0.9998 -0.0065 -0.0191
vn 0.5309 -0.0035 -0.8474
vn 0.6925 -0.6262 -0.3580
vn 0.8692 -0.4942 -0.0161
vn 0.4677 -0.5391 -0.7004
vn 0.7052 -0.7088 -0.0162
vn 0.4966 -0.5578 0.6650
vn 0.5476 -0.0040 0.8367
vn 0.2567 -0.1593 0.9532
vn -0.1863 0.6912 0.6982
vn -0.1117 0.7131 0.6921
vn -0.1117 0.7131 -0.6921
vn 0.1252 -0.6915 0.7114
vn 0.1638 -0.6455 0.7459
vn 0.1191 -0.6473 0.7529
vn 0.1863 0.6912 0.6982
vn 0.7055 -0.6255 0.3332
vn 0.2056 -0.9786 -0.0007
vn 0.0972 -0.7010 0.7064
vn -0.7054 -0.6255 0.3332
vn -0.0972 -0.7010 0.7064
vn -0.1252 -0.6915 0.7114
vn -0.2056 -0.9786 -0.0007
vn -0.0805 -0.9967 0.0000
vn -0.0558 -0.6917 0.7200
vn -0.0469 -0.6928 0.7196
vn -0.0655 -0.9978 0.0000
vn 0.1117 0.7131 -0.6921
vn -0.1191 -0.6472 -0.7529
vn -0.0558 -0.6917 -0.7200
vn -0.0469 -0.6928 -0.7196
vn 0.0331 0.7153 -0.6980
vn 0.1117 0.7131 0.6921
vn -0.1191 -0.6472 0.7529
vn -0.1638 -0.6455 0.7460
vn 0.1191 -0.6473 -0.7529
vn 0.1638 -0.6455 -0.7459
vn 0.2460 -0.9692 0.0000
vn 0.1464 -0.9892 0.0000
vn -0.1638 -0.6455 -0.7460
vn -0.2460 -0.9692 0.0000
vn -0.1464 -0.9892 0.0000
vn 0.0539 -0.9985 0.0000
vn 0.0377 -0.6988 -0.7143
vn 0.7056 -0.4545 -0.5437
vn 0.8304 -0.5571 0.0000
vn 0.0473 -0.6929 -0.7195
vn -0.0332 0.7153 -0.6980
vn 0.4485 0.6486 -0.6149
vn 0.0558 -0.6917 0.7200
vn 0.0473 -0.6929 0.7195
vn -0.0332 0.7153 0.6980
vn 0.0331 0.7153 0.6980
vn 0.0558 -0.6917 -0.7200
vn 0.0805 -0.9967 0.0000
vn 0.0662 -0.9978 0.0000
vn -0.4528 0.6435 -0.6171
vn -0.7038 -0.4618 -0.5397
vn -0.8248 -0.5654 0.0000
vn -0.7038 -0.4618 0.5397
vn -0.4528 0.6435 0.6171
vn 0.4485 0.6486 0.6149
vn 0.7056 -0.4545 0.5437
vn -0.0368 -0.6989 -0.7143
vn -0.0526 -0.9986 0.0000
vn -0.0368 -0.6989 0.7143
vn 0.0377 -0.6988 0.7143
vn 0.0421 0.9991 0.0000
vn -0.0421 0.9991 0.0000
usemtl Material
s 1
f 116/1/1 94/2/2 3/3/3 93/4/4
f 5/5/5 6/6/6 7/7/7 8/8/8
f 5/5/5 11/9/9 12/10/10 6/6/6
f 2/11/11 93/12/4 3/13/3 7/14/7 6/15/6
f 3/16/3 94/17/2 4/18/12 8/19/8 7/20/7
f 5/21/5 8/22/8 4/23/12 92/24/13 1/25/14
f 11/9/9 15/26/15 16/27/16 12/10/10
f 6/15/6 12/28/10 10/29/17 96/30/18 2/11/11
f 1/25/14 97/31/19 9/32/20 11/33/9 5/21/5
f 115/34/21 95/35/22 9/36/20 97/37/19
f 13/38/23 17/39/24 19/40/25 15/41/15
f 9/32/20 99/42/26 13/38/23 15/41/15 11/33/9
f 12/28/10 16/43/16 14/44/27 100/45/28 10/29/17
f 114/46/29 98/47/30 13/48/23 99/49/26
f 17/50/24 18/51/31 20/52/32 19/53/25
f 16/43/16 20/54/32 18/55/31 14/44/27
f 17/39/24 23/56/33 122/57/34 51/58/35 49/59/36
f 15/26/15 19/60/25 20/61/32 16/27/16
f 90/62/37 82/63/38 143/64/39 23/65/33 83/66/40
f 13/38/23 21/67/41 83/68/40 23/56/33 17/39/24
f 14/69/27 22/70/42 81/71/43 21/72/41 13/73/23 98/74/30
f 18/55/31 24/75/44 84/76/45 22/77/42 14/44/27
f 113/78/46 103/79/47 27/80/48 104/81/49
f 29/82/50 32/83/51 31/84/52 30/85/53
f 29/82/50 30/85/53 36/86/54 35/87/55
f 26/88/56 30/89/53 31/90/52 27/91/48 103/92/47
f 27/93/48 31/94/52 32/95/51 28/96/57 104/97/49
f 29/98/50 25/99/58 102/100/59 28/101/57 32/102/51
f 35/87/55 36/86/54 40/103/60 39/104/61
f 30/89/53 26/88/56 106/105/62 34/106/63 36/107/54
f 25/99/58 29/98/50 35/108/55 33/109/64 107/110/65
f 112/111/66 107/112/65 33/113/64 105/114/67
f 37/115/68 39/116/61 43/117/69 41/118/70
f 33/109/64 35/108/55 39/116/61 37/115/68 109/119/71
f 36/107/54 34/106/63 110/120/72 38/121/73 40/122/60
f 111/123/74 109/124/71 37/125/68 108/126/75
f 41/127/70 43/128/69 44/129/76 42/130/77
f 40/122/60 38/121/73 42/131/77 44/132/76
f 47/133/78 41/118/70 53/134/79 55/135/80 121/136/81
f 39/104/61 40/103/60 44/137/76 43/138/69
f 89/139/82 87/140/83 47/141/78 144/142/84 86/143/85
f 37/115/68 41/118/70 47/133/78 87/144/83 45/145/86
f 38/146/73 108/147/75 37/148/68 45/149/86 85/150/87 46/151/88
f 42/131/77 38/121/73 46/152/88 88/153/89 48/154/90
f 53/155/79 54/156/91 62/157/92 61/158/93
f 54/159/91 56/160/94 127/161/95 64/162/96 62/163/92
f 41/164/70 42/165/77 54/156/91 53/155/79
f 18/166/31 17/167/24 49/168/36 50/169/97
f 48/170/90 118/171/98 86/172/85 144/173/84 47/174/78 121/175/81 55/176/80 120/177/99 56/178/94 123/179/100
f 23/180/33 143/181/39 82/182/38 117/183/101 24/184/44 124/185/102 52/186/103 119/187/104 51/188/35 122/189/34
f 42/131/77 48/154/90 123/190/100 56/160/94 54/159/91
f 24/75/44 18/55/31 50/191/97 52/192/103 124/193/102
f 150/194/105 134/195/106 68/196/107 131/197/108
f 57/198/109 59/199/110 133/200/111 67/201/112 65/202/113
f 52/192/103 50/191/97 58/203/114 60/204/115 128/205/116
f 50/169/97 49/168/36 57/206/109 58/207/114
f 55/135/80 53/134/79 61/208/93 63/209/117 129/210/118
f 149/211/119 129/212/118 63/213/117 126/214/120
f 49/59/36 51/58/35 130/215/121 59/199/110 57/198/109
f 148/216/122 128/217/116 60/218/115 125/219/123
f 147/220/124 139/221/125 79/222/126 138/223/127
f 71/224/128 69/225/129 77/226/130 79/227/126 139/228/125
f 62/163/92 64/162/96 135/229/131 72/230/132 70/231/133
f 61/158/93 62/157/92 70/232/133 69/233/129
f 60/204/115 58/203/114 66/234/134 68/235/107 134/236/106
f 58/207/114 57/206/109 65/237/113 66/238/134
f 63/209/117 61/208/93 69/225/129 71/224/128 136/239/135
f 146/240/136 136/241/135 71/242/128 132/243/137
f 73/244/138 75/245/139 137/246/140 76/247/141 74/248/142
f 77/249/130 78/250/143 80/251/144 138/252/127 79/253/126
f 65/202/113 67/201/112 141/254/145 75/255/139 73/256/138
f 145/257/146 142/258/147 76/259/141 137/260/140
f 70/231/133 72/230/132 140/261/148 80/262/144 78/263/143
f 69/233/129 70/232/133 78/264/143 77/265/130
f 68/235/107 66/234/134 74/266/142 76/267/141 142/268/147
f 66/238/134 65/237/113 73/269/138 74/270/142
f 88/271/89 89/139/82 86/143/85 118/272/98 48/273/90
f 46/274/88 85/275/87 89/139/82 88/271/89
f 85/275/87 45/276/86 87/140/83 89/139/82
f 81/277/43 90/62/37 83/66/40 21/278/41
f 22/279/42 84/280/45 90/62/37 81/277/43
f 84/280/45 24/281/44 117/282/101 82/63/38 90/62/37
f 110/283/72 111/123/74 108/126/75 38/284/73
f 34/285/63 105/114/67 111/123/74 110/283/72
f 105/114/67 33/113/64 109/124/71 111/123/74
f 106/286/62 112/111/66 105/114/67 34/285/63
f 26/287/56 101/288/149 112/111/66 106/286/62
f 101/288/149 25/289/58 107/112/65 112/111/66
f 102/290/59 113/78/46 104/81/49 28/291/57
f 25/289/58 101/288/149 113/78/46 102/290/59
f 101/288/149 26/287/56 103/79/47 113/78/46
f 95/35/22 114/46/29 99/49/26 9/36/20
f 10/292/17 100/293/28 114/46/29 95/35/22
f 100/293/28 14/294/27 98/47/30 114/46/29
f 91/295/150 115/34/21 97/37/19 1/296/14
f 2/297/11 96/298/18 115/34/21 91/295/150
f 96/298/18 10/292/17 95/35/22 115/34/21
f 91/295/150 116/1/1 93/4/4 2/297/11
f 1/296/14 92/299/13 116/1/1 91/295/150
f 92/299/13 4/300/12 94/2/2 116/1/1
f 141/301/145 145/257/146 137/260/140 75/302/139
f 67/303/112 131/197/108 145/257/146 141/301/145
f 131/197/108 68/196/107 142/258/147 145/257/146
f 135/304/131 146/240/136 132/243/137 72/305/132
f 64/306/96 126/214/120 146/240/136 135/304/131
f 126/214/120 63/213/117 136/241/135 146/240/136
f 140/307/148 147/220/124 138/223/127 80/308/144
f 72/305/132 132/243/137 147/220/124 140/307/148
f 132/243/137 71/242/128 139/221/125 147/220/124
f 130/309/121 148/216/122 125/219/123 59/310/110
f 51/188/35 119/187/104 148/216/122 130/309/121
f 119/187/104 52/186/103 128/217/116 148/216/122
f 127/311/95 149/211/119 126/214/120 64/306/96
f 56/178/94 120/177/99 149/211/119 127/311/95
f 120/177/99 55/176/80 129/212/118 149/211/119
f 133/312/111 150/194/105 131/197/108 67/303/112
f 59/310/110 125/219/123 150/194/105 133/312/111
f 125/219/123 60/218/115 134/195/106 150/194/105
