# Blender v2.77 (sub 0) OBJ File: 'floor.blend'
# www.blender.org
mtllib floor.mtl
o Cube
v 1.995294 0.427654 -4.094334
v 1.995294 0.427654 4.094331
v -0.004706 0.306280 4.094330
v -0.004706 0.306280 -4.094336
v 1.995294 0.122211 -4.094332
v 1.995293 0.122211 4.094334
v -0.004706 0.000836 4.094330
v -0.004706 0.000836 -4.094334
v 2.982145 0.814723 -4.094333
v 2.982145 0.814723 4.094332
v 2.982145 0.509280 -4.094331
v 2.982144 0.509280 4.094335
v 4.087058 1.974696 -4.094332
v 4.087058 1.974696 4.094333
v 4.087059 1.669252 -4.094330
v 4.087058 1.669252 4.094336
v 4.317259 9.222597 -4.094332
v 4.317259 9.222597 4.094333
v 4.317259 2.120208 -4.094330
v 4.317258 2.120208 4.094336
v 4.030519 2.116072 -4.094332
v 3.992558 2.116072 4.094333
v 4.214911 9.247385 -4.094332
v 4.175213 9.247385 4.094333
v -1.995294 0.427654 -4.094334
v -1.995294 0.427654 4.094331
v 0.004706 0.306280 4.094330
v 0.004706 0.306280 -4.094336
v -1.995294 0.122211 -4.094332
v -1.995293 0.122211 4.094334
v 0.004706 0.000836 4.094330
v 0.004706 0.000836 -4.094334
v -2.982145 0.814723 -4.094333
v -2.982145 0.814723 4.094332
v -2.982145 0.509280 -4.094331
v -2.982144 0.509280 4.094335
v -4.087058 1.974696 -4.094332
v -4.087058 1.974696 4.094333
v -4.087059 1.669252 -4.094330
v -4.087058 1.669252 4.094336
v -4.317259 9.222597 -4.094332
v -4.317259 9.222597 4.094333
v -4.317259 2.120208 -4.094330
v -4.317258 2.120208 4.094336
v -4.030519 2.116072 -4.094332
v -3.992558 2.116072 4.094333
v -4.214911 9.247385 -4.094332
v -4.175213 9.247385 4.094333
v 3.870632 9.937251 -4.094332
v 3.870632 9.937251 4.094334
v 3.638679 9.962039 -4.094332
v 3.638679 9.962039 4.094334
v -3.870632 9.937251 -4.094332
v -3.870632 9.937251 4.094334
v -3.638679 9.962039 -4.094332
v -3.638679 9.962039 4.094334
v 3.153262 10.771488 -4.094332
v 3.153262 10.771488 4.094334
v 2.964298 10.796276 -4.094332
v 2.964298 10.796276 4.094334
v -3.153262 10.771488 -4.094332
v -3.153262 10.771488 4.094334
v -2.964298 10.796276 -4.094332
v -2.964298 10.796276 4.094334
v 1.067210 11.543324 -4.094332
v 1.067210 11.543324 4.094334
v 1.003256 11.568111 -4.094332
v 1.003256 11.568111 4.094334
v -1.067210 11.543324 -4.094332
v -1.067210 11.543324 4.094334
v -1.003256 11.568111 -4.094332
v -1.003256 11.568111 4.094334
v -0.038745 11.657761 -4.094332
v -0.038745 11.657761 4.094334
v -0.036423 11.682549 -4.094332
v -0.036423 11.682549 4.094334
v 0.038744 11.657761 -4.094332
v 0.038744 11.657761 4.094334
v 0.036423 11.682549 -4.094332
v 0.036423 11.682549 4.094334
v 3.922328 2.116072 0.000001
v 3.720372 9.247385 0.000001
v 4.122715 5.681728 -4.094332
v 4.083886 5.681728 4.094333
v -3.922328 2.116072 0.000001
v -3.720372 9.247385 0.000001
v -4.122715 5.681728 -4.094332
v -4.083886 5.681728 4.094333
v -3.264558 5.681728 0.000001
v 3.264558 5.681728 0.000000
v 2.102135 0.774889 -0.000001
v 0.995294 0.366967 -4.094335
v 0.995294 0.366967 4.094331
v -0.004958 0.673205 -0.000002
v 3.141829 1.099162 -0.000001
v 2.488719 0.621189 4.094332
v 2.488719 0.621189 -4.094334
v 4.305907 2.070947 0.000001
v 3.534601 1.394709 -4.094333
v 3.534601 1.394709 4.094333
v -2.102135 0.774889 -0.000001
v -0.995294 0.366967 -4.094335
v -0.995294 0.366967 4.094331
v 0.004958 0.673205 -0.000002
v -3.141829 1.099162 -0.000001
v -2.488719 0.621189 4.094332
v -2.488719 0.621189 -4.094334
v -4.305907 2.070947 0.000001
v -3.534601 1.394709 -4.094333
v -3.534601 1.394709 4.094333
v -3.723867 1.585054 0.000000
v -2.621982 0.937025 -0.000001
v -1.048589 0.724047 -0.000002
v 3.723867 1.585054 -0.000000
v 2.621982 0.937025 -0.000001
v 1.048589 0.724047 -0.000002
vt 0.0308 0.9133
vt 0.0153 0.9133
vt 0.0153 0.8420
vt 0.0308 0.8420
vt 0.4283 0.7968
vt 0.4283 0.9395
vt 0.3975 0.9395
vt 0.3975 0.7968
vt 0.4431 0.7968
vt 0.4431 0.9395
vt 0.3026 0.7032
vt 0.3179 0.7058
vt 0.3333 0.7084
vt 0.3329 0.7137
vt 0.3022 0.7085
vt 0.2506 0.8420
vt 0.2506 0.9133
vt 0.2506 0.9847
vt 0.2458 0.9847
vt 0.2458 0.8420
vt 0.3664 0.5166
vt 0.3971 0.5114
vt 0.3975 0.5167
vt 0.3821 0.5193
vt 0.3668 0.5219
vt 0.0153 0.6899
vt 0.0153 0.6683
vt 0.1422 0.6683
vt 0.1422 0.6899
vt 0.2875 0.7003
vt 0.2879 0.6950
vt 0.2952 0.6991
vt 0.3594 0.5260
vt 0.3521 0.5301
vt 0.3517 0.5248
vt 0.0539 0.9133
vt 0.0616 0.9133
vt 0.0616 0.9847
vt 0.0539 0.9847
vt 0.3366 0.5520
vt 0.3431 0.6782
vt 0.3333 0.5549
vt 0.3362 0.5467
vt 0.3444 0.5411
vt 0.2720 0.6784
vt 0.2724 0.6731
vt 0.2802 0.6840
vt 0.0702 0.9133
vt 0.0787 0.9133
vt 0.0787 0.9847
vt 0.0702 0.9847
vt 0.0153 0.5368
vt 0.1422 0.5368
vt 0.1422 0.6602
vt 0.0153 0.6602
vt 0.2691 0.6702
vt 0.2789 0.5469
vt 0.3471 0.6782
vt 0.3546 0.6899
vt 0.3510 0.6899
vt 0.2056 0.7518
vt 0.2056 0.8136
vt 0.1422 0.8136
vt 0.1422 0.7518
vt 0.3400 0.5541
vt 0.3436 0.6162
vt 0.2539 0.9847
vt 0.2506 0.9847
vt 0.2506 0.9133
vt 0.2506 0.8420
vt 0.2539 0.8420
vt 0.2539 0.9133
vt 0.2829 0.5469
vt 0.2794 0.6089
vt 0.2758 0.6710
vt 0.0942 0.9133
vt 0.0942 0.9847
vt 0.0787 0.9847
vt 0.0787 0.9133
vt 0.4131 0.6541
vt 0.4442 0.6541
vt 0.4442 0.7968
vt 0.4131 0.7968
vt 0.3975 0.7968
vt 0.3975 0.6541
vt 0.3026 0.7242
vt 0.3022 0.7189
vt 0.3329 0.7137
vt 0.3333 0.7190
vt 0.3179 0.7216
vt 0.2458 0.9847
vt 0.2411 0.9847
vt 0.2411 0.8420
vt 0.2458 0.8420
vt 0.2458 0.9133
vt 0.3664 0.9109
vt 0.3668 0.9056
vt 0.3821 0.9082
vt 0.3975 0.9108
vt 0.3971 0.9161
vt 0.1422 0.5114
vt 0.2691 0.5114
vt 0.2691 0.5330
vt 0.1422 0.5330
vt 0.2952 0.7284
vt 0.2879 0.7325
vt 0.2875 0.7272
vt 0.3517 0.9026
vt 0.3521 0.8973
vt 0.3594 0.9014
vt 0.1174 0.9133
vt 0.1174 0.8420
vt 0.1250 0.8420
vt 0.1250 0.9133
vt 0.3366 0.8755
vt 0.3362 0.8808
vt 0.3333 0.8726
vt 0.3431 0.7493
vt 0.3444 0.8864
vt 0.2802 0.7434
vt 0.2724 0.7543
vt 0.2720 0.7490
vt 0.1336 0.9133
vt 0.1336 0.8420
vt 0.1421 0.8420
vt 0.1421 0.9133
vt 0.1422 0.6645
vt 0.1422 0.5411
vt 0.2691 0.5411
vt 0.2691 0.6645
vt 0.2789 0.8805
vt 0.2691 0.7572
vt 0.3471 0.7493
vt 0.3510 0.7376
vt 0.3546 0.7375
vt 0.0788 0.7518
vt 0.1422 0.7518
vt 0.1422 0.8136
vt 0.0788 0.8136
vt 0.3436 0.8113
vt 0.3400 0.8733
vt 0.2539 0.9847
vt 0.2539 0.9133
vt 0.2539 0.8420
vt 0.2569 0.8420
vt 0.2569 0.9133
vt 0.2569 0.9847
vt 0.2758 0.7565
vt 0.2794 0.8185
vt 0.2829 0.8805
vt 0.1422 0.6764
vt 0.2691 0.6764
vt 0.2691 0.6899
vt 0.1422 0.6899
vt 0.2868 0.8922
vt 0.2904 0.8923
vt 0.3019 0.9057
vt 0.2990 0.9056
vt 0.0153 0.5249
vt 0.1422 0.5249
vt 0.0153 0.8136
vt 0.1422 0.8266
vt 0.0153 0.8266
vt 0.2691 0.8136
vt 0.2691 0.8266
vt 0.1422 0.8266
vt 0.2868 0.5352
vt 0.2904 0.5352
vt 0.4448 0.5114
vt 0.4448 0.6541
vt 0.4137 0.6541
vt 0.4137 0.5114
vt 0.3632 0.7032
vt 0.3661 0.7034
vt 0.3975 0.7137
vt 0.3965 0.7134
vt 0.2990 0.5219
vt 0.3019 0.5217
vt 0.0153 0.5114
vt 0.1422 0.5114
vt 0.3632 0.7242
vt 0.3661 0.7241
vt 0.1422 0.8420
vt 0.0153 0.8420
vt 0.2691 0.8420
vt 0.1422 0.8420
vt 0.4727 0.9395
vt 0.4727 0.7968
vt 0.4886 0.7968
vt 0.4886 0.9395
vt 0.2590 0.8431
vt 0.2592 0.8420
vt 0.2592 0.8614
vt 0.2589 0.8614
vt 0.3333 0.9161
vt 0.3323 0.9157
vt 0.2411 0.8420
vt 0.2411 0.9847
vt 0.2088 0.9847
vt 0.2088 0.8420
vt 0.3323 0.5117
vt 0.3333 0.5114
vt 0.1422 0.9847
vt 0.1422 0.8420
vt 0.1745 0.8420
vt 0.1745 0.9847
vt 0.3965 0.7141
vt 0.3975 0.7137
vt 0.4431 0.9395
vt 0.4431 0.7968
vt 0.2577 0.9847
vt 0.2573 0.9847
vt 0.2573 0.8420
vt 0.2577 0.8420
vt 0.2573 0.8420
vt 0.2573 0.9847
vt 0.2569 0.9847
vt 0.2569 0.8420
vt 0.2581 0.8614
vt 0.2578 0.8602
vt 0.2577 0.8420
vt 0.2581 0.8420
vt 0.3975 0.6541
vt 0.3975 0.5114
vt 0.2589 0.8614
vt 0.2586 0.8602
vt 0.2585 0.8420
vt 0.2589 0.8420
vt 0.1917 0.9847
vt 0.1917 0.8420
vt 0.2582 0.8431
vt 0.2585 0.8420
vt 0.2585 0.8614
vt 0.2581 0.8614
vt 0.1917 0.8420
vt 0.1917 0.9847
vt 0.0153 0.7518
vt 0.0153 0.6899
vt 0.0788 0.6899
vt 0.1422 0.6899
vt 0.2056 0.6899
vt 0.1422 0.6899
vt 0.2691 0.6899
vt 0.2691 0.7518
vt 0.1336 0.9847
vt 0.1421 0.9847
vt 0.1250 0.9847
vt 0.1174 0.9847
vt 0.1097 0.9847
vt 0.1097 0.9133
vt 0.1097 0.8420
vt 0.0942 0.8420
vt 0.0787 0.8420
vt 0.0616 0.8420
vt 0.0702 0.8420
vt 0.0787 0.8420
vt 0.0463 0.9133
vt 0.0463 0.9847
vt 0.0463 0.8420
vt 0.0539 0.8420
vt 0.0308 0.9847
vt 0.0153 0.9847
vn -0.0540 0.9947 0.0876
vn 0.0606 -0.9982 0.0000
vn 0.3651 -0.9310 0.0000
vn -0.0000 0.0000 1.0000
vn -1.0000 -0.0003 -0.0000
vn 0.0000 -0.0000 -1.0000
vn 0.7241 -0.6897 0.0000
vn -0.3307 0.9420 -0.0572
vn -0.6847 0.7288 0.0086
vn 1.0000 -0.0000 0.0000
vn 0.8907 -0.4547 0.0000
vn -0.9838 0.0756 -0.1625
vn -0.3764 -0.9265 -0.0013
vn 0.0540 0.9947 0.0876
vn -0.0606 -0.9982 0.0000
vn -0.3651 -0.9310 0.0000
vn 1.0000 -0.0003 -0.0000
vn -0.7241 -0.6897 0.0000
vn 0.3307 0.9420 -0.0572
vn 0.6847 0.7288 0.0086
vn -1.0000 -0.0000 0.0000
vn -0.8907 -0.4547 0.0000
vn 0.9838 0.0756 -0.1625
vn 0.3764 -0.9265 -0.0013
vn -0.7582 0.6520 0.0000
vn -0.8480 0.5300 0.0000
vn 0.8480 0.5300 0.0000
vn 0.9131 -0.4076 -0.0022
vn -0.9131 -0.4076 -0.0022
vn -0.3662 -0.9305 0.0000
vn 0.7582 0.6520 0.0000
vn 0.7777 -0.6287 0.0000
vn -0.7777 -0.6287 0.0000
vn 0.1094 -0.9940 0.0000
vn -0.3470 0.9379 0.0000
vn 0.3470 0.9379 0.0000
vn 0.3662 -0.9305 0.0000
vn 0.9956 -0.0933 0.0000
vn -0.9956 -0.0933 0.0000
vn -0.1094 -0.9940 0.0000
vn -0.1029 0.9947 0.0000
vn 0.1029 0.9947 0.0000
vn 0.9853 0.0756 0.1533
vn 0.9911 -0.0787 0.1077
vn 0.9900 -0.0785 -0.1168
vn -0.9900 -0.0785 -0.1168
vn -0.9911 -0.0787 0.1077
vn -0.9853 0.0756 0.1533
vn 0.6847 0.7288 -0.0086
vn 0.6847 0.7287 0.0131
vn 0.6847 0.7287 -0.0131
vn 0.3307 0.9420 0.0572
vn 0.3305 0.9415 0.0665
vn 0.3305 0.9415 -0.0665
vn 0.0540 0.9947 -0.0876
vn 0.0540 0.9950 -0.0845
vn 0.0540 0.9950 0.0845
vn -0.6847 0.7287 -0.0131
vn -0.6847 0.7287 0.0131
vn -0.6847 0.7288 -0.0086
vn -0.3305 0.9415 -0.0665
vn -0.3305 0.9415 0.0665
vn -0.3307 0.9420 0.0572
vn -0.0540 0.9950 0.0845
vn -0.0540 0.9950 -0.0845
vn -0.0540 0.9947 -0.0876
usemtl Material
s off
f 116/1/1 94/2/1 3/3/1 93/4/1
f 5/5/2 6/6/2 7/7/2 8/8/2
f 5/5/3 11/9/3 12/10/3 6/6/3
f 2/11/4 93/12/4 3/13/4 7/14/4 6/15/4
f 3/16/5 94/17/5 4/18/5 8/19/5 7/20/5
f 5/21/6 8/22/6 4/23/6 92/24/6 1/25/6
f 11/26/7 15/27/7 16/28/7 12/29/7
f 6/15/4 12/30/4 10/31/4 96/32/4 2/11/4
f 1/25/6 97/33/6 9/34/6 11/35/6 5/21/6
f 115/36/8 95/37/8 9/38/8 97/39/8
f 13/40/6 17/41/6 19/42/6 15/43/6
f 9/34/6 99/44/6 13/40/6 15/43/6 11/35/6
f 12/30/4 16/45/4 14/46/4 100/47/4 10/31/4
f 114/48/9 98/49/9 13/50/9 99/51/9
f 17/52/10 18/53/10 20/54/10 19/55/10
f 16/45/4 20/56/4 18/57/4 14/46/4
f 17/41/6 23/58/6 51/59/6 49/60/6
f 15/27/11 19/55/11 20/54/11 16/28/11
f 90/61/12 82/62/12 23/63/12 83/64/12
f 13/40/6 21/65/6 83/66/6 23/58/6 17/41/6
f 14/67/13 22/68/13 81/69/13 21/70/13 13/71/13 98/72/13
f 18/57/4 24/73/4 84/74/4 22/75/4 14/46/4
f 113/76/14 103/77/14 27/78/14 104/79/14
f 29/80/15 32/81/15 31/82/15 30/83/15
f 29/80/16 30/83/16 36/84/16 35/85/16
f 26/86/4 30/87/4 31/88/4 27/89/4 103/90/4
f 27/91/17 31/92/17 32/93/17 28/94/17 104/95/17
f 29/96/6 25/97/6 102/98/6 28/99/6 32/100/6
f 35/101/18 36/102/18 40/103/18 39/104/18
f 30/87/4 26/86/4 106/105/4 34/106/4 36/107/4
f 25/97/6 29/96/6 35/108/6 33/109/6 107/110/6
f 112/111/19 107/112/19 33/113/19 105/114/19
f 37/115/6 39/116/6 43/117/6 41/118/6
f 33/109/6 35/108/6 39/116/6 37/115/6 109/119/6
f 36/107/4 34/106/4 110/120/4 38/121/4 40/122/4
f 111/123/20 109/124/20 37/125/20 108/126/20
f 41/127/21 43/128/21 44/129/21 42/130/21
f 40/122/4 38/121/4 42/131/4 44/132/4
f 47/133/6 41/118/6 53/134/6 55/135/6
f 39/104/22 40/103/22 44/129/22 43/128/22
f 89/136/23 87/137/23 47/138/23 86/139/23
f 37/115/6 41/118/6 47/133/6 87/140/6 45/141/6
f 38/142/24 108/143/24 37/144/24 45/145/24 85/146/24 46/147/24
f 42/131/4 38/121/4 46/148/4 88/149/4 48/150/4
f 53/151/25 54/152/25 62/153/25 61/154/25
f 54/155/4 56/156/4 64/157/4 62/158/4
f 41/127/26 42/130/26 54/152/26 53/151/26
f 18/53/27 17/52/27 49/159/27 50/160/27
f 48/161/28 86/139/28 47/138/28 55/162/28 56/163/28
f 23/63/29 82/62/29 24/164/29 52/165/29 51/166/29
f 42/131/4 48/150/4 56/156/4 54/155/4
f 24/73/4 18/57/4 50/167/4 52/168/4
f 59/169/30 60/170/30 68/171/30 67/172/30
f 57/173/6 59/174/6 67/175/6 65/176/6
f 52/168/4 50/167/4 58/177/4 60/178/4
f 50/160/31 49/159/31 57/179/31 58/180/31
f 55/135/6 53/134/6 61/181/6 63/182/6
f 56/163/32 55/162/32 63/183/32 64/184/32
f 49/60/6 51/59/6 59/174/6 57/173/6
f 51/166/33 52/165/33 60/185/33 59/186/33
f 72/187/34 71/188/34 79/189/34 80/190/34
f 71/191/4 69/192/4 77/193/4 79/194/4
f 62/158/4 64/157/4 72/195/4 70/196/4
f 61/197/35 62/198/35 70/199/35 69/200/35
f 60/178/4 58/177/4 66/201/4 68/202/4
f 58/203/36 57/204/36 65/205/36 66/206/36
f 63/182/6 61/181/6 69/207/6 71/208/6
f 64/209/37 63/210/37 71/188/37 72/187/37
f 73/211/38 75/212/38 76/213/38 74/214/38
f 77/215/39 78/216/39 80/217/39 79/218/39
f 65/219/4 67/220/4 75/221/4 73/222/4
f 67/172/40 68/171/40 76/223/40 75/224/40
f 70/225/6 72/226/6 80/227/6 78/228/6
f 69/200/41 70/199/41 78/229/41 77/230/41
f 68/231/6 66/232/6 74/233/6 76/234/6
f 66/206/42 65/205/42 73/235/42 74/236/42
f 88/237/43 89/136/43 86/139/43 48/161/43
f 46/238/44 85/239/44 89/136/44 88/237/44
f 85/239/45 45/240/45 87/137/45 89/136/45
f 81/241/46 90/61/46 83/64/46 21/242/46
f 22/243/47 84/244/47 90/61/47 81/241/47
f 84/244/48 24/164/48 82/62/48 90/61/48
f 110/245/49 111/123/49 108/126/49 38/246/49
f 34/247/50 105/114/50 111/123/50 110/245/50
f 105/114/51 33/113/51 109/124/51 111/123/51
f 106/248/52 112/111/52 105/114/52 34/247/52
f 26/249/53 101/250/53 112/111/53 106/248/53
f 101/250/54 25/251/54 107/112/54 112/111/54
f 102/252/55 113/76/55 104/79/55 28/253/55
f 25/251/56 101/250/56 113/76/56 102/252/56
f 101/250/57 26/249/57 103/77/57 113/76/57
f 95/37/58 114/48/58 99/51/58 9/38/58
f 10/254/59 100/255/59 114/48/59 95/37/59
f 100/255/60 14/256/60 98/49/60 114/48/60
f 91/257/61 115/36/61 97/39/61 1/258/61
f 2/259/62 96/260/62 115/36/62 91/257/62
f 96/260/63 10/254/63 95/37/63 115/36/63
f 91/257/64 116/1/64 93/4/64 2/259/64
f 1/258/65 92/261/65 116/1/65 91/257/65
f 92/261/66 4/262/66 94/2/66 116/1/66
