# Blender v2.77 (sub 0) OBJ File: 'floor.blend'
# www.blender.org
mtllib floor.mtl
o Cube
v 1.995294 0.427654 -4.094334
v 1.995294 0.427654 4.094331
v -0.004706 0.306280 4.094330
v -0.004706 0.306280 -4.094336
v 1.995294 0.122211 -4.094332
v 1.995293 0.122211 4.094334
v -0.004706 0.000836 4.094330
v -0.004706 0.000836 -4.094334
v 2.982145 0.814723 -4.094333
v 2.982145 0.814723 4.094332
v 2.982145 0.509280 -4.094331
v 2.982144 0.509280 4.094335
v 4.087058 1.974696 -4.094332
v 4.087058 1.974696 4.094333
v 4.087059 1.669252 -4.094330
v 4.087058 1.669252 4.094336
v 4.317259 9.222597 -4.094332
v 4.317259 9.222597 4.094333
v 4.317259 2.120208 -4.094330
v 4.317258 2.120208 4.094336
v 4.030519 2.116072 -4.094332
v 3.992558 2.116072 4.094333
v 4.214911 9.247385 -4.094332
v 4.175213 9.247385 4.094333
v -1.995294 0.427654 -4.094334
v -1.995294 0.427654 4.094331
v 0.004706 0.306280 4.094330
v 0.004706 0.306280 -4.094336
v -1.995294 0.122211 -4.094332
v -1.995293 0.122211 4.094334
v 0.004706 0.000836 4.094330
v 0.004706 0.000836 -4.094334
v -2.982145 0.814723 -4.094333
v -2.982145 0.814723 4.094332
v -2.982145 0.509280 -4.094331
v -2.982144 0.509280 4.094335
v -4.087058 1.974696 -4.094332
v -4.087058 1.974696 4.094333
v -4.087059 1.669252 -4.094330
v -4.087058 1.669252 4.094336
v -4.317259 9.222597 -4.094332
v -4.317259 9.222597 4.094333
v -4.317259 2.120208 -4.094330
v -4.317258 2.120208 4.094336
v -4.030519 2.116072 -4.094332
v -3.992558 2.116072 4.094333
v -4.214911 9.247385 -4.094332
v -4.175213 9.247385 4.094333
v 3.870632 9.937251 -4.094332
v 3.870632 9.937251 4.094334
v 3.638679 9.631069 -4.094332
v 3.638679 9.631069 4.094334
v -3.870632 9.937251 -4.094332
v -3.870632 9.937251 4.094334
v -3.638679 9.631069 -4.094332
v -3.638679 9.631069 4.094334
v 3.153262 10.771488 -4.094332
v 3.153262 10.771488 4.094334
v 2.964298 10.465306 -4.094332
v 2.964298 10.465306 4.094334
v -3.153262 10.771488 -4.094332
v -3.153262 10.771488 4.094334
v -2.964298 10.465306 -4.094332
v -2.964298 10.465306 4.094334
v 1.067210 11.705503 -4.094332
v 1.067210 11.705503 4.094334
v 1.003256 11.237142 -4.094332
v 1.003256 11.237142 4.094334
v -1.067210 11.705503 -4.094332
v -1.067210 11.705503 4.094334
v -1.003256 11.237142 -4.094332
v -1.003256 11.237142 4.094334
v -0.042130 11.735798 -4.094332
v -0.042130 11.735798 4.094334
v -0.062945 11.510812 -4.094332
v -0.062945 11.510812 4.094334
v 0.016501 11.735798 -4.094332
v 0.016501 11.735798 4.094334
v 0.037316 11.510812 -4.094332
v 0.037316 11.510812 4.094334
v 3.922328 2.116072 0.000001
v 3.720372 9.247385 0.000001
v 4.122715 5.681728 -4.094332
v 4.083886 5.681728 4.094333
v -3.922328 2.116072 0.000001
v -3.720372 9.247385 0.000001
v -4.122715 5.681728 -4.094332
v -4.083886 5.681728 4.094333
v -3.264558 5.681728 0.000001
v 3.264558 5.681728 0.000000
v 2.102135 0.774889 -0.000001
v 0.995294 0.366967 -4.094335
v 0.995294 0.366967 4.094331
v -0.004958 0.673205 -0.000002
v 3.141829 1.099162 -0.000001
v 2.488719 0.621189 4.094332
v 2.488719 0.621189 -4.094334
v 4.305907 2.070947 0.000001
v 3.534601 1.394709 -4.094333
v 3.534601 1.394709 4.094333
v -2.102135 0.774889 -0.000001
v -0.995294 0.366967 -4.094335
v -0.995294 0.366967 4.094331
v 0.004958 0.673205 -0.000002
v -3.141829 1.099162 -0.000001
v -2.488719 0.621189 4.094332
v -2.488719 0.621189 -4.094334
v -4.305907 2.070947 0.000001
v -3.534601 1.394709 -4.094333
v -3.534601 1.394709 4.094333
v -3.723867 1.585054 0.000000
v -2.621982 0.937025 -0.000001
v -1.048589 0.724047 -0.000002
v 3.723867 1.585054 -0.000000
v 2.621982 0.937025 -0.000001
v 1.048589 0.724047 -0.000002
v 3.947793 9.247385 2.047167
v -3.947793 9.247385 2.047167
v 3.295319 9.559600 0.000001
v -3.295837 9.559600 0.000001
v -3.926795 9.439227 -4.094332
v 3.926795 9.439227 -4.094332
v -3.906946 9.439227 4.094334
v 3.906946 9.439227 4.094334
v 2.684527 10.393837 0.000001
v -2.685045 10.393837 0.000001
v -3.301488 10.048187 4.094334
v 3.301488 10.048187 4.094334
v -3.301488 10.048187 -4.094332
v 3.301488 10.048187 -4.094332
v 0.908397 11.165672 0.000001
v -0.908915 11.165672 0.000001
v 1.983777 10.851224 -4.094332
v 1.983777 10.851224 4.094334
v -1.983777 10.851224 4.094334
v -1.983777 10.851224 -4.094332
v -0.057269 11.439342 0.000001
v 0.033538 11.439342 0.000001
v -0.482970 11.373977 -4.094332
v -0.482970 11.373977 4.094334
v 0.470156 11.373977 -4.094332
v 0.470156 11.373977 4.094334
v 3.967642 9.247385 -2.047165
v -3.967642 9.247385 -2.047165
v 0.425564 11.302507 0.000001
v -1.796980 10.779755 0.000001
v -0.437688 11.302507 0.000001
v 2.989923 9.976718 0.000001
v -2.990441 9.976718 0.000001
v 1.796462 10.779755 0.000001
vt 0.0308 0.9133
vt 0.0153 0.9133
vt 0.0153 0.8420
vt 0.0308 0.8420
vt 0.4283 0.7968
vt 0.4283 0.9395
vt 0.3975 0.9395
vt 0.3975 0.7968
vt 0.4431 0.7968
vt 0.4431 0.9395
vt 0.3026 0.7032
vt 0.3179 0.7058
vt 0.3333 0.7084
vt 0.3329 0.7137
vt 0.3022 0.7085
vt 0.2506 0.8420
vt 0.2506 0.9133
vt 0.2506 0.9847
vt 0.2458 0.9847
vt 0.2458 0.8420
vt 0.3664 0.5166
vt 0.3971 0.5114
vt 0.3975 0.5167
vt 0.3821 0.5193
vt 0.3668 0.5219
vt 0.0153 0.6899
vt 0.0153 0.6683
vt 0.1422 0.6683
vt 0.1422 0.6899
vt 0.2875 0.7003
vt 0.2879 0.6950
vt 0.2952 0.6991
vt 0.3594 0.5260
vt 0.3521 0.5301
vt 0.3517 0.5248
vt 0.0539 0.9133
vt 0.0616 0.9133
vt 0.0616 0.9847
vt 0.0539 0.9847
vt 0.3366 0.5520
vt 0.3431 0.6782
vt 0.3333 0.5549
vt 0.3362 0.5467
vt 0.3444 0.5411
vt 0.2720 0.6784
vt 0.2724 0.6731
vt 0.2802 0.6840
vt 0.0702 0.9133
vt 0.0787 0.9133
vt 0.0787 0.9847
vt 0.0702 0.9847
vt 0.0153 0.5368
vt 0.1422 0.5368
vt 0.1422 0.6602
vt 0.0153 0.6602
vt 0.2691 0.6702
vt 0.2789 0.5469
vt 0.3471 0.6782
vt 0.3509 0.6841
vt 0.3546 0.6899
vt 0.3510 0.6899
vt 0.2056 0.7518
vt 0.2056 0.8136
vt 0.1739 0.8136
vt 0.1422 0.8136
vt 0.1422 0.7518
vt 0.3400 0.5541
vt 0.3436 0.6162
vt 0.2539 0.9847
vt 0.2506 0.9847
vt 0.2506 0.9133
vt 0.2506 0.8420
vt 0.2539 0.8420
vt 0.2539 0.9133
vt 0.2829 0.5469
vt 0.2794 0.6089
vt 0.2758 0.6710
vt 0.0942 0.9133
vt 0.0942 0.9847
vt 0.0787 0.9847
vt 0.0787 0.9133
vt 0.4131 0.6541
vt 0.4442 0.6541
vt 0.4442 0.7968
vt 0.4131 0.7968
vt 0.3975 0.7968
vt 0.3975 0.6541
vt 0.3026 0.7242
vt 0.3022 0.7189
vt 0.3329 0.7137
vt 0.3333 0.7190
vt 0.3179 0.7216
vt 0.2458 0.9847
vt 0.2411 0.9847
vt 0.2411 0.8420
vt 0.2458 0.8420
vt 0.2458 0.9133
vt 0.3664 0.9109
vt 0.3668 0.9056
vt 0.3821 0.9082
vt 0.3975 0.9108
vt 0.3971 0.9161
vt 0.1422 0.5114
vt 0.2691 0.5114
vt 0.2691 0.5330
vt 0.1422 0.5330
vt 0.2952 0.7284
vt 0.2879 0.7325
vt 0.2875 0.7272
vt 0.3517 0.9026
vt 0.3521 0.8973
vt 0.3594 0.9014
vt 0.1174 0.9133
vt 0.1174 0.8420
vt 0.1250 0.8420
vt 0.1250 0.9133
vt 0.3366 0.8755
vt 0.3362 0.8808
vt 0.3333 0.8726
vt 0.3431 0.7493
vt 0.3444 0.8864
vt 0.2802 0.7434
vt 0.2724 0.7543
vt 0.2720 0.7490
vt 0.1336 0.9133
vt 0.1336 0.8420
vt 0.1421 0.8420
vt 0.1421 0.9133
vt 0.1422 0.6645
vt 0.1422 0.5411
vt 0.2691 0.5411
vt 0.2691 0.6645
vt 0.2789 0.8805
vt 0.2691 0.7572
vt 0.3471 0.7493
vt 0.3510 0.7376
vt 0.3546 0.7375
vt 0.3509 0.7434
vt 0.0788 0.7518
vt 0.1422 0.7518
vt 0.1422 0.8136
vt 0.1105 0.8136
vt 0.0788 0.8136
vt 0.3436 0.8113
vt 0.3400 0.8733
vt 0.2539 0.9847
vt 0.2539 0.9133
vt 0.2539 0.8420
vt 0.2569 0.8420
vt 0.2569 0.9133
vt 0.2569 0.9847
vt 0.2758 0.7565
vt 0.2794 0.8185
vt 0.2829 0.8805
vt 0.1422 0.6764
vt 0.2691 0.6764
vt 0.2691 0.6899
vt 0.1422 0.6899
vt 0.2868 0.8922
vt 0.2904 0.8923
vt 0.2962 0.8990
vt 0.3019 0.9057
vt 0.2990 0.9056
vt 0.0153 0.5249
vt 0.1422 0.5249
vt 0.0153 0.8136
vt 0.0470 0.8136
vt 0.1422 0.8201
vt 0.1422 0.8266
vt 0.0788 0.8266
vt 0.0153 0.8266
vt 0.0153 0.8201
vt 0.2374 0.8136
vt 0.2691 0.8136
vt 0.2691 0.8201
vt 0.2691 0.8266
vt 0.2056 0.8266
vt 0.1422 0.8266
vt 0.1422 0.8201
vt 0.2867 0.8864
vt 0.2868 0.5352
vt 0.2904 0.5352
vt 0.2867 0.5410
vt 0.4292 0.5827
vt 0.4292 0.6541
vt 0.4137 0.6541
vt 0.4137 0.5827
vt 0.3632 0.7032
vt 0.3661 0.7034
vt 0.3818 0.7086
vt 0.3975 0.7137
vt 0.3965 0.7134
vt 0.2990 0.5219
vt 0.3019 0.5217
vt 0.2962 0.5284
vt 0.0153 0.5114
vt 0.1422 0.5114
vt 0.3632 0.7242
vt 0.3661 0.7241
vt 0.3604 0.7308
vt 0.0788 0.8343
vt 0.1422 0.8343
vt 0.1422 0.8420
vt 0.0788 0.8420
vt 0.3604 0.6967
vt 0.2056 0.8343
vt 0.2691 0.8343
vt 0.2691 0.8420
vt 0.2056 0.8420
vt 0.4806 0.8681
vt 0.4806 0.7968
vt 0.4886 0.7968
vt 0.4886 0.8681
vt 0.2590 0.8431
vt 0.2592 0.8420
vt 0.2592 0.8614
vt 0.2589 0.8614
vt 0.2589 0.8522
vt 0.3176 0.9109
vt 0.3333 0.9161
vt 0.3323 0.9157
vt 0.2411 0.8420
vt 0.2411 0.9847
vt 0.2088 0.9847
vt 0.2088 0.8420
vt 0.3323 0.5117
vt 0.3333 0.5114
vt 0.3176 0.5166
vt 0.1422 0.9847
vt 0.1422 0.8420
vt 0.1745 0.8420
vt 0.1745 0.9847
vt 0.3965 0.7141
vt 0.3975 0.7137
vt 0.3818 0.7189
vt 0.4579 0.8681
vt 0.4579 0.7968
vt 0.4727 0.7968
vt 0.4727 0.8681
vt 0.2577 0.9847
vt 0.2573 0.9847
vt 0.2573 0.9133
vt 0.2573 0.8420
vt 0.2577 0.8420
vt 0.2573 0.8420
vt 0.2573 0.9847
vt 0.2569 0.9847
vt 0.2569 0.9133
vt 0.2569 0.8420
vt 0.2581 0.8614
vt 0.2578 0.8602
vt 0.2578 0.8511
vt 0.2577 0.8420
vt 0.2581 0.8420
vt 0.4056 0.5827
vt 0.4056 0.6541
vt 0.3975 0.6541
vt 0.3975 0.5827
vt 0.2589 0.8614
vt 0.2586 0.8602
vt 0.2585 0.8511
vt 0.2585 0.8420
vt 0.2589 0.8420
vt 0.1917 0.9847
vt 0.1917 0.8420
vt 0.2582 0.8431
vt 0.2585 0.8420
vt 0.2585 0.8614
vt 0.2581 0.8614
vt 0.2581 0.8522
vt 0.1917 0.8420
vt 0.1917 0.9847
vt 0.0153 0.7518
vt 0.0153 0.6899
vt 0.0788 0.6899
vt 0.1422 0.6899
vt 0.2056 0.6899
vt 0.1422 0.6899
vt 0.2691 0.6899
vt 0.2691 0.7518
vt 0.1336 0.9847
vt 0.1421 0.9847
vt 0.1250 0.9847
vt 0.1174 0.9847
vt 0.1097 0.9847
vt 0.1097 0.9133
vt 0.1097 0.8420
vt 0.0942 0.8420
vt 0.0787 0.8420
vt 0.0616 0.8420
vt 0.0702 0.8420
vt 0.0787 0.8420
vt 0.0463 0.9133
vt 0.0463 0.9847
vt 0.0463 0.8420
vt 0.0539 0.8420
vt 0.0308 0.9847
vt 0.0153 0.9847
vt 0.4056 0.5114
vt 0.3975 0.5114
vt 0.4137 0.5114
vt 0.4579 0.9395
vt 0.4727 0.9395
vt 0.4431 0.9395
vt 0.4431 0.8681
vt 0.4431 0.7968
vt 0.4806 0.9395
vt 0.4886 0.9395
vt 0.1422 0.8343
vt 0.1422 0.8420
vt 0.0153 0.8343
vt 0.0153 0.8420
vt 0.4292 0.5114
vt 0.4448 0.5114
vt 0.4448 0.5827
vt 0.4448 0.6541
vn -0.0540 0.9947 0.0876
vn 0.0606 -0.9982 0.0000
vn 0.3651 -0.9310 0.0000
vn -0.0000 0.0000 1.0000
vn -1.0000 -0.0003 -0.0000
vn 0.0000 -0.0000 -1.0000
vn 0.7241 -0.6897 0.0000
vn -0.3307 0.9420 -0.0572
vn -0.6847 0.7288 0.0086
vn 1.0000 -0.0000 0.0000
vn 0.8907 -0.4547 0.0000
vn -0.9838 0.0756 -0.1625
vn -0.3764 -0.9265 -0.0013
vn 0.0540 0.9947 0.0876
vn -0.0606 -0.9982 0.0000
vn -0.3651 -0.9310 0.0000
vn 1.0000 -0.0003 -0.0000
vn -0.7241 -0.6897 0.0000
vn 0.3307 0.9420 -0.0572
vn 0.6847 0.7288 0.0086
vn -1.0000 -0.0000 0.0000
vn -0.8907 -0.4547 0.0000
vn 0.9838 0.0756 -0.1625
vn 0.3764 -0.9265 -0.0013
vn -0.7582 0.6520 0.0000
vn -0.8480 0.5300 0.0000
vn 0.8480 0.5300 0.0000
vn 0.5786 -0.8156 -0.0015
vn -0.5784 -0.8157 -0.0015
vn -0.3816 -0.9239 0.0293
vn 0.7582 0.6520 0.0000
vn 0.7904 -0.6088 -0.0676
vn -0.7904 -0.6088 0.0677
vn 0.2660 -0.9638 -0.0182
vn -0.4087 0.9127 0.0000
vn 0.4087 0.9127 0.0000
vn 0.3816 -0.9239 -0.0292
vn -0.9976 0.0688 -0.0000
vn 0.9974 0.0724 0.0000
vn -0.2601 -0.9654 0.0181
vn -0.0279 0.9996 0.0000
vn 0.0273 0.9996 0.0000
vn 0.9853 0.0756 0.1533
vn 0.9911 -0.0787 0.1077
vn 0.9900 -0.0785 -0.1168
vn -0.9900 -0.0785 -0.1168
vn -0.9911 -0.0787 0.1077
vn -0.9853 0.0756 0.1533
vn 0.6847 0.7288 -0.0086
vn 0.6847 0.7287 0.0131
vn 0.6847 0.7287 -0.0131
vn 0.3307 0.9420 0.0572
vn 0.3305 0.9415 0.0665
vn 0.3305 0.9415 -0.0665
vn 0.0540 0.9947 -0.0876
vn 0.0540 0.9950 -0.0845
vn 0.0540 0.9950 0.0845
vn -0.6847 0.7287 -0.0131
vn -0.6847 0.7287 0.0131
vn -0.6847 0.7288 -0.0086
vn -0.3305 0.9415 -0.0665
vn -0.3305 0.9415 0.0665
vn -0.3307 0.9420 0.0572
vn -0.0540 0.9950 0.0845
vn -0.0540 0.9950 -0.0845
vn -0.0540 0.9947 -0.0876
vn -0.2601 -0.9654 -0.0181
vn -0.2600 -0.9654 -0.0213
vn -0.2600 -0.9654 0.0213
vn 0.3816 -0.9239 0.0292
vn 0.3815 -0.9236 0.0378
vn 0.3815 -0.9236 -0.0378
vn 0.2660 -0.9638 0.0182
vn 0.2660 -0.9637 0.0214
vn 0.2660 -0.9637 -0.0214
vn -0.7904 -0.6088 -0.0677
vn -0.7901 -0.6086 -0.0738
vn -0.7901 -0.6086 0.0738
vn 0.7904 -0.6088 0.0676
vn 0.7901 -0.6086 0.0737
vn 0.7901 -0.6086 -0.0737
vn -0.3816 -0.9239 -0.0293
vn -0.3815 -0.9236 -0.0379
vn -0.3815 -0.9236 0.0379
usemtl Material
s off
f 116/1/1 94/2/1 3/3/1 93/4/1
f 5/5/2 6/6/2 7/7/2 8/8/2
f 5/5/3 11/9/3 12/10/3 6/6/3
f 2/11/4 93/12/4 3/13/4 7/14/4 6/15/4
f 3/16/5 94/17/5 4/18/5 8/19/5 7/20/5
f 5/21/6 8/22/6 4/23/6 92/24/6 1/25/6
f 11/26/7 15/27/7 16/28/7 12/29/7
f 6/15/4 12/30/4 10/31/4 96/32/4 2/11/4
f 1/25/6 97/33/6 9/34/6 11/35/6 5/21/6
f 115/36/8 95/37/8 9/38/8 97/39/8
f 13/40/6 17/41/6 19/42/6 15/43/6
f 9/34/6 99/44/6 13/40/6 15/43/6 11/35/6
f 12/30/4 16/45/4 14/46/4 100/47/4 10/31/4
f 114/48/9 98/49/9 13/50/9 99/51/9
f 17/52/10 18/53/10 20/54/10 19/55/10
f 16/45/4 20/56/4 18/57/4 14/46/4
f 17/41/6 23/58/6 122/59/6 51/60/6 49/61/6
f 15/27/11 19/55/11 20/54/11 16/28/11
f 90/62/12 82/63/12 143/64/12 23/65/12 83/66/12
f 13/40/6 21/67/6 83/68/6 23/58/6 17/41/6
f 14/69/13 22/70/13 81/71/13 21/72/13 13/73/13 98/74/13
f 18/57/4 24/75/4 84/76/4 22/77/4 14/46/4
f 113/78/14 103/79/14 27/80/14 104/81/14
f 29/82/15 32/83/15 31/84/15 30/85/15
f 29/82/16 30/85/16 36/86/16 35/87/16
f 26/88/4 30/89/4 31/90/4 27/91/4 103/92/4
f 27/93/17 31/94/17 32/95/17 28/96/17 104/97/17
f 29/98/6 25/99/6 102/100/6 28/101/6 32/102/6
f 35/103/18 36/104/18 40/105/18 39/106/18
f 30/89/4 26/88/4 106/107/4 34/108/4 36/109/4
f 25/99/6 29/98/6 35/110/6 33/111/6 107/112/6
f 112/113/19 107/114/19 33/115/19 105/116/19
f 37/117/6 39/118/6 43/119/6 41/120/6
f 33/111/6 35/110/6 39/118/6 37/117/6 109/121/6
f 36/109/4 34/108/4 110/122/4 38/123/4 40/124/4
f 111/125/20 109/126/20 37/127/20 108/128/20
f 41/129/21 43/130/21 44/131/21 42/132/21
f 40/124/4 38/123/4 42/133/4 44/134/4
f 47/135/6 41/120/6 53/136/6 55/137/6 121/138/6
f 39/106/22 40/105/22 44/131/22 43/130/22
f 89/139/23 87/140/23 47/141/23 144/142/23 86/143/23
f 37/117/6 41/120/6 47/135/6 87/144/6 45/145/6
f 38/146/24 108/147/24 37/148/24 45/149/24 85/150/24 46/151/24
f 42/133/4 38/123/4 46/152/4 88/153/4 48/154/4
f 53/155/25 54/156/25 62/157/25 61/158/25
f 54/159/4 56/160/4 127/161/4 64/162/4 62/163/4
f 41/129/26 42/132/26 54/156/26 53/155/26
f 18/53/27 17/52/27 49/164/27 50/165/27
f 48/166/28 118/167/28 86/143/28 144/142/28 47/141/28 121/168/28 55/169/28 120/170/28 56/171/28 123/172/28
f 23/65/29 143/64/29 82/63/29 117/173/29 24/174/29 124/175/29 52/176/29 119/177/29 51/178/29 122/179/29
f 42/133/4 48/154/4 123/180/4 56/160/4 54/159/4
f 24/75/4 18/57/4 50/181/4 52/182/4 124/183/4
f 150/184/30 134/185/30 68/186/30 131/187/30
f 57/188/6 59/189/6 133/190/6 67/191/6 65/192/6
f 52/182/4 50/181/4 58/193/4 60/194/4 128/195/4
f 50/165/31 49/164/31 57/196/31 58/197/31
f 55/137/6 53/136/6 61/198/6 63/199/6 129/200/6
f 149/201/32 129/202/32 63/203/32 126/204/32
f 49/61/6 51/60/6 130/205/6 59/189/6 57/188/6
f 148/206/33 128/207/33 60/208/33 125/209/33
f 147/210/34 139/211/34 79/212/34 138/213/34
f 71/214/6 69/215/6 77/216/6 79/217/6 139/218/6
f 62/163/4 64/162/4 135/219/4 72/220/4 70/221/4
f 61/222/35 62/223/35 70/224/35 69/225/35
f 60/194/4 58/193/4 66/226/4 68/227/4 134/228/4
f 58/229/36 57/230/36 65/231/36 66/232/36
f 63/199/6 61/198/6 69/233/6 71/234/6 136/235/6
f 146/236/37 136/237/37 71/238/37 132/239/37
f 73/240/38 75/241/38 137/242/38 76/243/38 74/244/38
f 77/245/39 78/246/39 80/247/39 138/248/39 79/249/39
f 65/250/6 67/251/6 141/252/6 75/253/6 73/254/6
f 145/255/40 142/256/40 76/257/40 137/258/40
f 70/259/4 72/260/4 140/261/4 80/262/4 78/263/4
f 69/225/41 70/224/41 78/264/41 77/265/41
f 68/266/4 66/267/4 74/268/4 76/269/4 142/270/4
f 66/232/42 65/231/42 73/271/42 74/272/42
f 88/273/43 89/139/43 86/143/43 118/167/43 48/166/43
f 46/274/44 85/275/44 89/139/44 88/273/44
f 85/275/45 45/276/45 87/140/45 89/139/45
f 81/277/46 90/62/46 83/66/46 21/278/46
f 22/279/47 84/280/47 90/62/47 81/277/47
f 84/280/48 24/174/48 117/173/48 82/63/48 90/62/48
f 110/281/49 111/125/49 108/128/49 38/282/49
f 34/283/50 105/116/50 111/125/50 110/281/50
f 105/116/51 33/115/51 109/126/51 111/125/51
f 106/284/52 112/113/52 105/116/52 34/283/52
f 26/285/53 101/286/53 112/113/53 106/284/53
f 101/286/54 25/287/54 107/114/54 112/113/54
f 102/288/55 113/78/55 104/81/55 28/289/55
f 25/287/56 101/286/56 113/78/56 102/288/56
f 101/286/57 26/285/57 103/79/57 113/78/57
f 95/37/58 114/48/58 99/51/58 9/38/58
f 10/290/59 100/291/59 114/48/59 95/37/59
f 100/291/60 14/292/60 98/49/60 114/48/60
f 91/293/61 115/36/61 97/39/61 1/294/61
f 2/295/62 96/296/62 115/36/62 91/293/62
f 96/296/63 10/290/63 95/37/63 115/36/63
f 91/293/64 116/1/64 93/4/64 2/295/64
f 1/294/65 92/297/65 116/1/65 91/293/65
f 92/297/66 4/298/66 94/2/66 116/1/66
f 141/299/67 145/255/67 137/258/67 75/300/67
f 67/301/68 131/187/68 145/255/68 141/299/68
f 131/187/69 68/186/69 142/256/69 145/255/69
f 135/302/70 146/236/70 132/239/70 72/303/70
f 64/304/71 126/305/71 146/236/71 135/302/71
f 126/305/72 63/306/72 136/237/72 146/236/72
f 140/307/73 147/210/73 138/213/73 80/308/73
f 72/303/74 132/239/74 147/210/74 140/307/74
f 132/239/75 71/238/75 139/211/75 147/210/75
f 130/309/76 148/206/76 125/209/76 59/310/76
f 51/178/77 119/177/77 148/206/77 130/309/77
f 119/177/78 52/176/78 128/207/78 148/206/78
f 127/311/79 149/201/79 126/204/79 64/312/79
f 56/171/80 120/170/80 149/201/80 127/311/80
f 120/170/81 55/169/81 129/202/81 149/201/81
f 133/313/82 150/184/82 131/187/82 67/301/82
f 59/314/83 125/315/83 150/184/83 133/313/83
f 125/315/84 60/316/84 134/185/84 150/184/84
