# Blender v2.77 (sub 0) OBJ File: 'obstacle3.blend'
# www.blender.org
mtllib obstacle3.mtl
o Cube
v 2.351607 -0.045527 -1.054172
v 2.351607 -0.045527 0.945828
v 2.287545 0.294094 0.780346
v 2.287547 0.294094 -0.888690
v 3.654693 1.954473 -1.054172
v 3.654692 1.954473 0.945828
v 1.432090 0.922509 0.945828
v 1.432090 0.922509 -1.054172
v 3.504503 2.438136 -1.054172
v 3.504501 2.438136 0.945829
v -0.070197 2.515912 -1.054172
v -0.070197 2.515912 0.945828
v 2.650928 2.611971 -1.054172
v 2.650927 2.611971 0.945829
v -0.065516 3.146968 -1.054172
v -0.065516 3.146968 0.945828
v -2.487339 -0.045527 -1.054172
v -2.487339 -0.045527 0.945828
v -2.423153 0.294094 0.780346
v -2.423154 0.294094 -0.888690
v -3.790425 1.954473 -1.054172
v -3.790424 1.954473 0.945828
v -1.567698 0.922509 0.945828
v -1.567698 0.922509 -1.054172
v -3.640234 2.438136 -1.054172
v -3.640233 2.438136 0.945829
v -0.065865 2.515912 -1.054172
v -0.065864 2.515912 0.945828
v -2.786660 2.611971 -1.054172
v -2.786659 2.611971 0.945829
v -0.070216 3.146968 -1.054172
v -0.070216 3.146968 0.945828
v 2.351607 -0.045527 -0.054172
v 3.246903 0.954473 -1.054172
v 3.246903 0.954473 0.945828
v 3.654693 1.954473 -0.054172
v -2.487339 -0.045527 -0.054172
v -3.382635 0.954473 -1.054172
v -3.382635 0.954473 0.945828
v -3.790424 1.954473 -0.054172
v -3.382635 0.954473 -0.054172
v 3.246903 0.954473 -0.054172
v 1.432090 0.922509 -0.054172
v -0.070197 2.515912 -0.054172
v 1.075254 1.102724 0.945828
v 1.075255 1.102724 -1.054172
v -1.567698 0.922509 -0.054172
v -0.065865 2.515912 -0.054172
v -1.210862 1.102724 0.945828
v -1.210863 1.102724 -1.054172
v -1.210862 1.102724 -0.054172
v 1.075254 1.102724 -0.054172
vt 0.0700 0.8913
vt 0.0700 0.9372
vt 0.0700 0.9830
vt 0.0264 0.9830
vt 0.0264 0.8913
vt 0.1996 0.8154
vt 0.2683 0.7136
vt 0.2888 0.7246
vt 0.2605 0.8860
vt 0.2022 0.8452
vt 0.4275 0.7273
vt 0.4275 0.6785
vt 0.4736 0.6785
vt 0.4736 0.7273
vt 0.1662 0.7544
vt 0.2194 0.7230
vt 0.1578 0.7969
vt 0.4271 0.9703
vt 0.3814 0.9703
vt 0.3814 0.9244
vt 0.3814 0.8786
vt 0.4271 0.8786
vt 0.2683 0.7136
vt 0.2194 0.7041
vt 0.1662 0.6727
vt 0.1578 0.6302
vt 0.1996 0.6117
vt 0.2891 0.9324
vt 0.3352 0.9324
vt 0.3814 0.9324
vt 0.3814 0.9605
vt 0.2891 0.9605
vt 0.3814 0.6785
vt 0.3814 0.6584
vt 0.4736 0.6584
vt 0.3352 0.8629
vt 0.3814 0.8629
vt 0.2022 0.5819
vt 0.2605 0.5412
vt 0.2888 0.7025
vt 0.3814 0.7384
vt 0.3814 0.8629
vt 0.2891 0.8629
vt 0.2891 0.7384
vt 0.2891 0.5358
vt 0.2891 0.6626
vt 0.2891 0.7645
vt 0.2891 0.8913
vt 0.2891 0.6993
vt 0.3814 0.6993
vt 0.0700 0.8913
vt 0.1136 0.8913
vt 0.1136 0.9830
vt 0.0700 0.9830
vt 0.0700 0.9372
vt 0.0682 0.7895
vt 0.0708 0.7597
vt 0.1292 0.7190
vt 0.1575 0.8803
vt 0.1369 0.8913
vt 0.4275 0.5895
vt 0.4736 0.5895
vt 0.4736 0.6383
vt 0.4275 0.6383
vt 0.0348 0.8505
vt 0.0264 0.8080
vt 0.0881 0.8819
vt 0.4271 0.9703
vt 0.4271 0.8786
vt 0.4729 0.8786
vt 0.4729 0.9244
vt 0.4729 0.9703
vt 0.1369 0.5358
vt 0.0682 0.6376
vt 0.0264 0.6191
vt 0.0348 0.5766
vt 0.0881 0.5452
vt 0.4736 0.8505
vt 0.4736 0.8786
vt 0.3814 0.8786
vt 0.3814 0.8505
vt 0.4275 0.8505
vt 0.4736 0.6584
vt 0.3814 0.6584
vt 0.3814 0.6383
vt 0.4275 0.7810
vt 0.3814 0.7810
vt 0.1575 0.5468
vt 0.1292 0.7082
vt 0.0708 0.6674
vt 0.2891 0.5749
vt 0.3814 0.5749
vt 0.3814 0.6993
vt 0.2891 0.6993
vt 0.1578 0.5867
vt 0.1578 0.7136
vt 0.1578 0.7136
vt 0.1578 0.8404
vt 0.3814 0.5358
vt 0.2891 0.5358
vt 0.3814 0.5895
vt 0.3814 0.5358
vt 0.4275 0.5358
vt 0.4736 0.5358
vt 0.4275 0.7810
vt 0.4736 0.7810
vt 0.3814 0.7810
vt 0.3814 0.7273
vt 0.1425 0.9372
vt 0.1136 0.9372
vt 0.1136 0.8913
vt 0.1425 0.8913
vt 0.1425 0.9830
vt 0.1136 0.9830
vt 0.4736 0.7810
vt 0.2891 0.8629
vt 0.1715 0.8913
vt 0.1715 0.9372
vt 0.1425 0.9372
vt 0.1425 0.8913
vt 0.1715 0.9830
vt 0.1425 0.9830
vn -0.9827 -0.1854 -0.0000
vn -0.0000 -0.0000 1.0000
vn 0.9260 -0.3776 0.0000
vn -0.0479 -0.0455 0.9978
vn -0.5920 -0.8059 -0.0000
vn -0.0479 -0.0455 -0.9978
vn -1.0000 0.0074 -0.0000
vn 0.9550 0.2966 0.0000
vn -0.7769 -0.6297 -0.0000
vn 0.0000 0.0000 -1.0000
vn 0.1932 0.9812 0.0000
vn 0.1996 0.9799 0.0000
vn 0.9826 -0.1857 -0.0000
vn -0.9260 -0.3776 0.0000
vn 0.0479 -0.0455 0.9978
vn 0.5920 -0.8059 -0.0000
vn 0.0479 -0.0455 -0.9978
vn 1.0000 0.0069 -0.0000
vn -0.9550 0.2966 0.0000
vn 0.7770 -0.6295 -0.0000
vn -0.1932 0.9812 0.0000
vn -0.1996 0.9799 0.0000
vn -0.7450 -0.6670 0.0000
vn 0.7450 -0.6670 0.0000
vn 0.4508 -0.8926 -0.0000
vn -0.4508 -0.8926 -0.0000
usemtl Material
s off
f 1/1/1 33/2/1 2/3/1 3/4/1 4/5/1
f 7/6/2 6/7/2 10/8/2 12/9/2 45/10/2
f 42/11/3 36/12/3 6/13/3 35/14/3
f 2/15/4 35/16/4 6/7/4 7/6/4 3/17/4
f 3/18/5 7/19/5 43/20/5 8/21/5 4/22/5
f 5/23/6 34/24/6 1/25/6 4/26/6 8/27/6
f 11/28/7 44/29/7 12/30/7 16/31/7 15/32/7
f 6/13/8 36/12/8 5/33/8 9/34/8 10/35/8
f 52/36/9 45/37/9 12/30/9 44/29/9
f 5/23/10 8/27/10 46/38/10 11/39/10 9/40/10
f 13/41/11 15/42/11 16/43/11 14/44/11
f 9/40/10 11/39/10 15/45/10 13/46/10
f 12/9/2 10/8/2 14/47/2 16/48/2
f 10/49/12 9/50/12 13/41/12 14/44/12
f 17/51/13 20/52/13 19/53/13 18/54/13 37/55/13
f 23/56/2 49/57/2 28/58/2 26/59/2 22/60/2
f 41/61/14 39/62/14 22/63/14 40/64/14
f 18/65/15 19/66/15 23/56/15 22/60/15 39/67/15
f 19/68/16 20/69/16 24/70/16 47/71/16 23/72/16
f 21/73/17 24/74/17 20/75/17 17/76/17 38/77/17
f 27/78/18 31/79/18 32/80/18 28/81/18 48/82/18
f 22/63/19 26/83/19 25/84/19 21/85/19 40/64/19
f 51/86/20 48/82/20 28/81/20 49/87/20
f 21/73/10 25/88/10 27/89/10 50/90/10 24/74/10
f 29/91/21 30/92/21 32/93/21 31/94/21
f 25/88/10 29/95/10 31/96/10 27/89/10
f 28/58/2 32/97/2 30/98/2 26/59/2
f 26/99/22 30/92/22 29/91/22 25/100/22
f 38/101/14 41/61/14 40/64/14 21/85/14
f 17/102/23 37/103/23 41/61/23 38/101/23
f 37/103/23 18/104/23 39/62/23 41/61/23
f 33/105/24 42/11/24 35/14/24 2/106/24
f 1/107/24 34/108/24 42/11/24 33/105/24
f 34/108/3 5/33/3 36/12/3 42/11/3
f 47/109/25 51/110/25 49/111/25 23/112/25
f 24/113/25 50/114/25 51/110/25 47/109/25
f 50/115/20 27/78/20 48/82/20 51/86/20
f 46/116/9 52/36/9 44/29/9 11/28/9
f 8/117/26 43/118/26 52/119/26 46/120/26
f 43/118/26 7/121/26 45/122/26 52/119/26
