# Blender v2.77 (sub 0) OBJ File: 'obstacle1.blend'
# www.blender.org
mtllib obstacle1.mtl
o Cube
v 6.567939 0.085940 -1.000000
v 6.567939 0.085940 1.000000
v -6.567940 0.085940 1.000000
v -6.567936 0.085940 -1.000000
v 6.567942 0.451976 -1.000000
v 6.567935 0.451976 1.000001
v -6.567941 0.451976 1.000000
v -6.567938 0.451976 -1.000000
v 6.567939 0.451976 0.000000
v 0.000002 1.720345 -1.000000
v -0.000003 1.720345 1.000000
v -6.567940 0.451976 -0.000000
v -0.000000 1.720345 0.000000
v 6.567937 0.451976 0.500001
v -3.283968 1.477840 -1.000000
v -3.283972 1.477840 1.000000
v -6.567939 0.451976 -0.500000
v 6.567941 0.451976 -0.500000
v 3.283972 1.477840 -1.000000
v 3.283966 1.477840 1.000000
v -6.567941 0.451976 0.500000
v -0.000002 1.720345 0.500000
v 0.000001 1.720345 -0.500000
v 3.283969 1.477840 0.000000
v -3.283970 1.477840 0.000000
v -3.283969 1.477840 -0.500000
v 3.283971 1.477840 -0.500000
v 3.283967 1.477840 0.500000
v -3.283971 1.477840 0.500000
vt 0.0078 0.5078
vt 0.1347 0.5078
vt 0.1347 0.9922
vt 0.0078 0.9922
vt 0.2298 0.6289
vt 0.2298 0.5078
vt 0.2616 0.5078
vt 0.2616 0.6289
vt 0.4922 0.5816
vt 0.4690 0.5816
vt 0.4690 0.5631
vt 0.4690 0.5447
vt 0.4690 0.5262
vt 0.4690 0.5078
vt 0.4922 0.5078
vt 0.4690 0.9922
vt 0.4458 0.9922
vt 0.3807 0.8711
vt 0.3653 0.7500
vt 0.3807 0.6289
vt 0.4458 0.5078
vt 0.4690 0.5078
vt 0.4922 0.6553
vt 0.4690 0.6553
vt 0.4690 0.6369
vt 0.4690 0.6184
vt 0.4690 0.6000
vt 0.4690 0.5816
vt 0.4922 0.5816
vt 0.3420 0.5078
vt 0.3653 0.5078
vt 0.3653 0.9922
vt 0.3420 0.9922
vt 0.2770 0.8711
vt 0.2616 0.7500
vt 0.2770 0.6289
vt 0.2298 0.8711
vt 0.2298 0.7500
vt 0.2616 0.7500
vt 0.2616 0.8711
vt 0.1664 0.8711
vt 0.1664 0.7500
vt 0.1981 0.7500
vt 0.1981 0.8711
vt 0.1664 0.6289
vt 0.1664 0.5078
vt 0.1981 0.5078
vt 0.1981 0.6289
vt 0.1347 0.7500
vt 0.1347 0.6289
vt 0.1347 0.5078
vt 0.1664 0.9922
vt 0.1981 0.9922
vt 0.1347 0.9922
vt 0.1347 0.8711
vt 0.2298 0.9922
vt 0.2616 0.9922
vn 0.0000 -1.0000 0.0000
vn -0.2982 0.9545 -0.0000
vn 1.0000 0.0000 0.0000
vn -0.0000 -0.0000 1.0000
vn -1.0000 -0.0000 -0.0000
vn 0.0000 0.0000 -1.0000
vn 0.0736 0.9973 0.0000
vn -0.0736 0.9973 -0.0000
vn 0.2982 0.9545 0.0000
usemtl Material
s off
f 1/1/1 2/2/1 3/3/1 4/4/1
f 29/5/2 21/6/2 7/7/2 16/8/2
f 1/9/3 5/10/3 18/11/3 9/12/3 14/13/3 6/14/3 2/15/3
f 2/16/4 6/17/4 20/18/4 11/19/4 16/20/4 7/21/4 3/22/4
f 3/23/5 7/24/5 21/25/5 12/26/5 17/27/5 8/28/5 4/29/5
f 5/30/6 1/31/6 4/32/6 8/33/6 15/34/6 10/35/6 19/36/6
f 28/37/7 22/38/7 11/39/7 20/40/7
f 27/41/7 23/42/7 13/43/7 24/44/7
f 26/45/2 17/46/2 12/47/2 25/48/2
f 23/42/8 26/45/8 25/48/8 13/43/8
f 10/49/8 15/50/8 26/45/8 23/42/8
f 15/50/2 8/51/2 17/46/2 26/45/2
f 18/52/9 27/41/9 24/44/9 9/53/9
f 5/54/9 19/55/9 27/41/9 18/52/9
f 19/55/7 10/49/7 23/42/7 27/41/7
f 14/56/9 28/37/9 20/40/9 6/57/9
f 9/53/9 24/44/9 28/37/9 14/56/9
f 24/44/7 13/43/7 22/38/7 28/37/7
f 22/38/8 29/5/8 16/8/8 11/39/8
f 13/43/8 25/48/8 29/5/8 22/38/8
f 25/48/2 12/47/2 21/6/2 29/5/2
