# Blender v2.77 (sub 0) OBJ File: 'obstacle2.blend'
# www.blender.org
mtllib obstacle2.mtl
o Cube
v 2.419473 -0.028010 -1.000000
v 2.419473 -0.028010 1.000000
v 1.282797 -0.028010 1.000000
v 1.282798 -0.028010 -1.000000
v 3.722559 1.971990 -0.999999
v 3.722558 1.971990 1.000001
v 0.635855 2.049766 1.000000
v 0.635855 2.049766 -1.000000
v 3.572369 2.455652 -0.999999
v 3.572367 2.455652 1.000001
v -0.002001 3.504675 -1.000000
v -0.002001 3.504675 1.000000
v 2.718794 2.629488 -0.999999
v 2.718793 2.629488 1.000001
v 0.002350 4.135731 -1.000000
v 0.002350 4.135731 1.000000
v -2.419473 -0.028010 -1.000000
v -2.419473 -0.028010 1.000000
v -1.282797 -0.028010 1.000000
v -1.282798 -0.028010 -1.000000
v -3.722559 1.971990 -0.999999
v -3.722558 1.971990 1.000001
v -0.635855 2.049766 1.000000
v -0.635855 2.049766 -1.000000
v -3.572369 2.455652 -0.999999
v -3.572367 2.455652 1.000001
v 0.002001 3.504675 -1.000000
v 0.002001 3.504675 1.000000
v -2.718794 2.629488 -0.999999
v -2.718793 2.629488 1.000001
v -0.002350 4.135731 -1.000000
v -0.002350 4.135731 1.000000
v 2.419473 -0.028010 0.000000
v 3.314769 0.971990 -1.000000
v 3.314769 0.971990 1.000000
v -2.419473 -0.028010 0.000000
v -3.314769 0.971990 -1.000000
v -3.314769 0.971990 1.000000
v 35.954674 -0.028010 0.000000
v 35.954674 -0.028010 1.000000
v 35.678112 0.971990 -1.000000
v 35.183331 1.971990 -0.999999
v 35.678108 0.971990 1.000000
v 35.183323 1.971990 1.000001
v 35.183327 1.971990 0.000001
v 33.763824 2.455652 -0.999999
v 33.763813 2.455652 1.000001
v -35.954674 -0.028010 0.000000
v -35.954674 -0.028010 1.000000
v -35.678112 0.971990 -1.000000
v -35.183331 1.971990 -0.999999
v -35.678108 0.971990 1.000000
v -35.183323 1.971990 1.000001
v -35.183327 1.971990 0.000001
v -33.763824 2.455652 -0.999999
v -33.763813 2.455652 1.000001
v 35.954674 -0.028010 -1.000000
v -35.954674 -0.028010 -1.000000
v -35.678108 0.971990 0.000000
v 35.678108 0.971990 0.000000
vt 0.4153 0.9565
vt 0.4333 0.9565
vt 0.4513 0.9565
vt 0.4513 0.9714
vt 0.4153 0.9714
vt 0.2705 0.9807
vt 0.2718 0.9402
vt 0.2804 0.9425
vt 0.2960 0.9900
vt 0.4333 0.5159
vt 0.4513 0.5159
vt 0.2347 0.9560
vt 0.2535 0.9449
vt 0.2337 0.9709
vt 0.4513 0.5684
vt 0.4513 0.5422
vt 0.4873 0.5422
vt 0.4873 0.5684
vt 0.0508 0.5661
vt 0.0325 0.5614
vt 0.0137 0.5503
vt 0.0127 0.5354
vt 0.0495 0.5255
vt 0.4873 0.5241
vt 0.4513 0.5241
vt 0.4513 0.5159
vt 0.4873 0.5159
vt 0.1245 0.5661
vt 0.1331 0.5638
vt 0.1601 0.9600
vt 0.1526 0.9790
vt 0.0750 0.5162
vt 0.0594 0.5638
vt 0.3434 0.9424
vt 0.3434 0.9781
vt 0.3074 0.9781
vt 0.3074 0.9424
vt 0.0864 0.5159
vt 0.0618 0.5525
vt 0.2827 0.9538
vt 0.3074 0.9904
vt 0.3074 0.9312
vt 0.3434 0.9312
vt 0.3793 0.5308
vt 0.3793 0.5159
vt 0.4153 0.5159
vt 0.4153 0.5308
vt 0.3973 0.5308
vt 0.1231 0.5255
vt 0.1487 0.5162
vt 0.2647 0.5159
vt 0.2824 0.5201
vt 0.0874 0.5503
vt 0.0864 0.5354
vt 0.1062 0.5614
vt 0.4513 0.5684
vt 0.4873 0.5684
vt 0.4873 0.5946
vt 0.4513 0.5946
vt 0.1982 0.9402
vt 0.1968 0.9807
vt 0.1601 0.9709
vt 0.1611 0.9560
vt 0.1798 0.9449
vt 0.4873 0.6127
vt 0.4873 0.6209
vt 0.4513 0.6209
vt 0.4513 0.6127
vt 0.4153 0.9714
vt 0.3973 0.9714
vt 0.2067 0.9425
vt 0.2224 0.9900
vt 0.3793 0.5515
vt 0.3434 0.5515
vt 0.3434 0.5159
vt 0.3793 0.5159
vt 0.2091 0.9538
vt 0.2337 0.9904
vt 0.1601 0.5159
vt 0.1354 0.5525
vt 0.3434 0.5628
vt 0.3793 0.5628
vt 0.0614 0.9861
vt 0.0437 0.9904
vt 0.3074 0.5345
vt 0.3434 0.5345
vt 0.4153 0.5159
vt 0.3000 0.5273
vt 0.0864 0.9600
vt 0.0790 0.9790
vt 0.3793 0.9595
vt 0.3434 0.9595
vt 0.4693 0.6616
vt 0.4693 0.6754
vt 0.4513 0.6754
vt 0.4513 0.6616
vt 0.3074 0.5159
vt 0.3254 0.5159
vt 0.3434 0.5159
vt 0.4693 0.6347
vt 0.4513 0.6347
vt 0.4513 0.6209
vt 0.4693 0.6209
vt 0.3434 0.9781
vt 0.3793 0.9781
vt 0.3614 0.9781
vt 0.4873 0.6347
vt 0.4873 0.6209
vt 0.4873 0.6482
vt 0.4693 0.6482
vt 0.4513 0.6482
vt 0.4693 0.6482
vt 0.4513 0.6482
vt 0.4873 0.6482
vt 0.4873 0.6616
vt 0.4873 0.6754
vt 0.2088 0.5201
vt 0.2263 0.5273
vt 0.3793 0.9714
vt 0.3074 0.5462
vt 0.2337 0.5462
vt 0.1911 0.5159
vt 0.1351 0.9861
vt 0.1174 0.9904
vn -0.0000 -1.0000 0.0000
vn -0.0000 -0.0000 1.0000
vn -0.9548 -0.2973 -0.0000
vn 0.0000 0.0000 -1.0000
vn -1.0000 0.0069 -0.0000
vn -0.9158 -0.4015 -0.0000
vn 0.4849 0.8746 0.0000
vn 0.1996 0.9799 0.0000
vn 0.9548 -0.2973 -0.0000
vn 1.0000 0.0069 -0.0000
vn 0.9158 -0.4015 -0.0000
vn -0.4849 0.8746 0.0000
vn -0.1996 0.9799 0.0000
vn 0.0000 1.0000 -0.0000
vn 0.8963 0.4435 0.0000
vn 0.3225 0.9466 0.0000
vn -0.8963 0.4435 0.0000
vn -0.3225 0.9466 0.0000
vn -0.9638 0.2666 0.0000
vn 0.9638 0.2666 0.0000
usemtl Material
s off
f 1/1/1 33/2/1 2/3/1 3/4/1 4/5/1
f 7/6/2 6/7/2 10/8/2 12/9/2
f 2/3/1 33/2/1 39/10/1 40/11/1
f 2/12/2 35/13/2 6/7/2 7/6/2 3/14/2
f 3/15/3 7/16/3 8/17/3 4/18/3
f 5/19/4 34/20/4 1/21/4 4/22/4 8/23/4
f 11/24/5 12/25/5 16/26/5 15/27/5
f 22/28/2 26/29/2 56/30/2 53/31/2
f 8/17/6 7/16/6 12/25/6 11/24/6
f 5/19/4 8/23/4 11/32/4 9/33/4
f 13/34/7 15/35/7 16/36/7 14/37/7
f 9/33/4 11/32/4 15/38/4 13/39/4
f 12/9/2 10/8/2 14/40/2 16/41/2
f 10/42/8 9/43/8 13/34/8 14/37/8
f 17/44/1 20/45/1 19/46/1 18/47/1 36/48/1
f 23/49/2 28/50/2 26/29/2 22/28/2
f 35/13/2 2/12/2 40/51/2 43/52/2
f 18/53/2 19/54/2 23/49/2 22/28/2 38/55/2
f 19/56/9 20/57/9 24/58/9 23/59/9
f 21/60/4 24/61/4 20/62/4 17/63/4 37/64/4
f 27/65/10 31/66/10 32/67/10 28/68/10
f 36/48/1 18/47/1 49/69/1 48/70/1
f 24/58/11 27/65/11 28/68/11 23/59/11
f 21/60/4 25/71/4 27/72/4 24/61/4
f 29/73/12 30/74/12 32/75/12 31/76/12
f 25/71/4 29/77/4 31/78/4 27/72/4
f 28/50/2 32/79/2 30/80/2 26/29/2
f 26/81/13 30/74/13 29/73/13 25/82/13
f 1/21/4 34/20/4 41/83/4 57/84/4
f 9/43/14 10/42/14 47/85/14 46/86/14
f 33/2/1 1/1/1 57/87/1 39/10/1
f 6/7/2 35/13/2 43/52/2 44/88/2
f 5/19/4 9/33/4 46/89/4 42/90/4
f 26/81/14 25/82/14 55/91/14 56/92/14
f 60/93/15 45/94/15 44/95/15 43/96/15
f 44/97/16 45/98/16 42/99/16 46/86/16 47/85/16
f 59/100/17 52/101/17 53/102/17 54/103/17
f 53/104/18 56/92/18 55/91/18 51/105/18 54/106/18
f 50/107/17 59/100/17 54/103/17 51/108/17
f 58/109/19 48/110/19 59/100/19 50/107/19
f 48/110/19 49/111/19 52/101/19 59/100/19
f 39/112/20 60/93/20 43/96/20 40/113/20
f 57/114/20 41/115/20 60/93/20 39/112/20
f 41/115/15 42/116/15 45/94/15 60/93/15
f 21/60/4 37/64/4 50/117/4 51/118/4
f 17/44/1 36/48/1 48/70/1 58/119/1
f 10/8/2 6/7/2 44/88/2 47/120/2
f 25/71/4 21/60/4 51/118/4 55/121/4
f 37/64/4 17/63/4 58/122/4 50/117/4
f 34/20/4 5/19/4 42/90/4 41/83/4
f 38/55/2 22/28/2 53/31/2 52/123/2
f 18/53/2 38/55/2 52/123/2 49/124/2
