# Blender v2.77 (sub 0) OBJ File: 'ship2.blend'
# www.blender.org
mtllib ship2.mtl
o Ship2_Cube
v 1.786910 -1.358450 1.137605
v -1.786910 -1.358450 1.137606
v -1.786910 -1.358450 -1.137606
v 1.786911 -1.358450 -1.137605
v 0.934136 1.474262 1.137606
v -0.934137 1.474262 1.137605
v -0.934136 1.474262 -1.137606
v 0.934136 1.474262 -1.137606
v 0.000000 -1.395883 1.585283
v 1.924826 -1.218009 0.000000
v 0.992790 0.000000 1.209035
v -1.924826 -1.218009 0.000000
v -0.992790 0.000000 1.209034
v 0.000000 -1.395883 -1.585283
v -0.992790 0.000000 -1.209035
v 0.992790 0.000000 -1.209035
v -0.000001 2.008847 1.585283
v 0.929168 2.008847 0.000000
v -0.929168 2.008847 -0.000001
v 0.000000 2.008847 -1.947028
v 1.529469 0.000000 0.000000
v 0.000000 0.000000 -2.917516
v -1.529469 0.000000 -0.000000
v -0.000000 0.000000 1.585283
v -0.000000 6.896318 -0.000000
v 0.000000 -1.395883 0.000000
v -0.650872 3.180091 -0.000000
v 0.650871 3.180091 0.000000
v -0.000000 3.180091 0.792641
v -0.000000 3.180091 -0.792642
vt 0.0750 0.8818
vt 0.0560 0.8405
vt 0.1046 0.8163
vt 0.1417 0.8459
vt 0.1648 0.6153
vt 0.1846 0.6892
vt 0.1547 0.6815
vt 0.1271 0.6292
vt 0.1430 0.5904
vt 0.2287 0.5876
vt 0.2400 0.6718
vt 0.2005 0.6594
vt 0.1877 0.5983
vt 0.0881 0.6990
vt 0.1274 0.7352
vt 0.4841 0.5427
vt 0.4877 0.6412
vt 0.4198 0.6452
vt 0.3960 0.5898
vt 0.3400 0.6227
vt 0.3403 0.5769
vt 0.3743 0.5420
vt 0.3809 0.6953
vt 0.2934 0.6399
vt 0.2864 0.5775
vt 0.3400 0.5726
vt 0.3400 0.6592
vt 0.0604 0.9877
vt 0.0527 0.9630
vt 0.1032 0.9430
vt 0.1238 0.9877
vt 0.4143 0.5083
vt 0.0955 0.7813
vt 0.1798 0.7873
vt 0.0892 0.8163
vt 0.0558 0.7439
vt 0.0083 0.7170
vt 0.0347 0.6670
vt 0.0675 0.6173
vt 0.2180 0.5083
vt 0.1846 0.5408
vt 0.2774 0.5212
vt 0.1040 0.5706
vt 0.1846 0.5083
vt 0.2642 0.7213
vt 0.3143 0.7150
vt 0.2954 0.8225
vt 0.4244 0.7362
vt 0.4725 0.7139
vt 0.4877 0.8221
vt 0.1484 0.9115
vt 0.0083 0.9176
vt 0.0089 0.8678
vt 0.0492 0.5894
vn 0.0000 -1.0000 0.0000
vn -0.8891 -0.4577 0.0000
vn -0.7389 -0.5386 -0.4048
vn 0.0000 -0.8029 -0.5961
vn 0.0000 0.5266 -0.8501
vn 0.0000 0.5222 -0.8528
vn -0.8624 0.2720 -0.4269
vn -0.9261 0.3766 0.0199
vn -0.9340 0.3567 0.0186
vn 0.0000 0.0439 0.9990
vn 0.0000 0.3802 0.9249
vn -0.7625 0.2169 0.6095
vn -0.6663 0.1683 0.7264
vn -0.9500 0.3122 0.0000
vn -0.8440 0.1168 -0.5234
vn 0.0000 0.0106 -0.9999
vn 0.8624 0.2720 -0.4269
vn 0.8440 0.1168 -0.5234
vn 0.9500 0.3122 0.0000
vn 0.8891 -0.4577 0.0000
vn 0.7389 -0.5386 -0.4048
vn 0.9261 0.3766 0.0199
vn 0.7625 0.2169 0.6095
vn 0.6663 0.1683 0.7264
vn 0.6937 -0.4869 0.5306
vn -0.6937 -0.4869 0.5306
vn 0.0000 -0.6560 0.7548
vn 0.0000 0.4857 0.8741
vn 0.0000 1.0000 0.0000
vn 0.9340 0.3567 0.0186
usemtl Material
s 1
f 26/1/1 12/2/2 3/3/3 14/4/4
f 30/5/5 20/6/6 7/7/7 19/8/8 27/9/9
f 24/10/10 17/11/11 6/12/12 13/13/13
f 23/14/14 19/8/8 7/7/7 15/15/15
f 22/16/16 20/17/6 8/18/17 16/19/18
f 21/20/19 10/21/20 4/22/21 16/19/18
f 18/23/22 21/20/19 16/19/18 8/18/17
f 5/24/23 11/25/24 21/26/19 18/27/22
f 11/28/24 1/29/25 10/30/20 21/31/19
f 14/32/4 22/16/16 16/19/18 4/22/21
f 3/33/3 15/15/15 22/34/16 14/35/4
f 15/15/15 7/7/7 20/6/6 22/34/16
f 12/36/2 23/14/14 15/15/15 3/33/3
f 2/37/26 13/38/13 23/14/14 12/36/2
f 13/38/13 6/39/12 19/8/8 23/14/14
f 9/40/27 24/10/10 13/13/13 2/41/26
f 1/42/25 11/25/24 24/10/10 9/40/27
f 11/25/24 5/24/23 17/11/11 24/10/10
f 29/43/28 25/44/29 27/9/9
f 29/45/28 28/46/30 25/47/29
f 28/48/30 30/49/5 25/50/29
f 10/30/20 26/1/1 14/4/4 4/51/21
f 1/29/25 9/52/27 26/1/1 10/30/20
f 9/52/27 2/53/26 12/2/2 26/1/1
f 18/23/22 8/18/17 20/17/6 30/49/5 28/48/30
f 5/24/23 18/27/22 28/46/30 29/45/28 17/11/11
f 17/54/11 29/43/28 27/9/9 19/8/8 6/39/12
f 25/44/29 30/5/5 27/9/9
