# Blender v2.77 (sub 0) OBJ File: 'ship1.blend'
# www.blender.org
mtllib ship1.mtl
o Ship1_Cube.001
v -0.589798 -1.156767 0.495121
v -0.589798 1.136122 0.495121
v -1.000000 -1.597090 -1.504879
v -1.000000 1.933468 -1.504879
v 0.589798 -1.156767 0.495121
v 0.589798 1.136122 0.495121
v 1.000000 -1.597090 -1.504879
v 1.000000 1.933468 -1.504879
v -2.400729 -0.010322 0.495121
v -4.070423 -0.010322 -1.504879
v 4.070423 -0.010322 -1.504879
v 2.400729 -0.010322 0.495121
v -1.495264 0.562900 0.495121
v -2.535212 -0.982218 -1.504879
v 0.000000 3.855258 -2.317825
v 2.535212 -0.982218 -1.504879
v 0.000000 -1.784329 -4.674895
v 1.495264 -0.583544 0.495121
v 0.000000 3.057911 -0.251449
v 0.000000 -1.639868 0.495121
v -1.495264 -0.583544 0.495121
v -2.535212 0.961573 -1.504879
v 2.535212 0.961573 -1.504879
v 1.495264 0.562900 0.495121
v 0.286349 -0.967937 3.020712
v 0.000000 -0.010322 -6.660259
v 0.000000 0.961574 -5.461743
v -0.112949 1.904907 3.020712
v -0.286349 0.947292 3.020712
v 0.000000 -0.982217 -5.461743
v -1.767606 -1.468165 -1.504879
v 0.500000 1.933468 -4.176929
v 1.767606 -1.468165 -1.504879
v -0.500000 -1.597089 -4.176929
v -3.302817 0.475626 -1.504879
v 3.302817 0.475626 -1.504879
v -2.035212 -0.010322 -4.176929
v -3.302817 -0.496270 -1.504879
v -0.500000 1.933468 -4.176929
v 3.302817 -0.496270 -1.504879
v 0.500000 -1.597089 -4.176929
v -1.767606 1.447520 -1.504879
v 1.767606 1.447520 -1.504879
v 2.035212 -0.010322 -4.176929
v 0.000000 0.475626 -5.860683
v 0.000000 1.447521 -5.117589
v -1.267606 0.961573 -4.176929
v 1.267606 0.961573 -4.176929
v 0.000000 -1.468165 -5.117589
v 0.000000 -0.496271 -5.860683
v -1.267606 -0.982217 -4.176929
v 1.267606 -0.982217 -4.176929
v 1.651409 -0.496270 -4.176929
v -1.651409 -0.496270 -4.176929
v -0.883803 -1.468165 -4.176929
v 0.883803 1.447521 -4.176929
v -0.883803 1.447521 -4.176929
v -1.651409 0.475626 -4.176929
v 1.651409 0.475626 -4.176929
v 0.883803 -1.468165 -4.176929
v -0.286349 0.099452 2.139023
v -0.112949 0.209227 2.139024
v 0.286349 -0.120096 2.139024
v 0.112949 -0.229871 2.139023
v 0.000000 0.209227 2.139024
v 0.000000 -0.229871 2.139023
v -0.286349 -0.120096 2.139024
v -0.459749 -0.010322 2.139024
v 0.286349 0.099452 2.139023
v 0.459749 -0.010322 2.139024
v 0.112949 0.209227 2.139024
v -0.112949 -0.229871 2.139023
v 0.112949 -1.925553 3.020712
v 0.000000 1.904907 3.020712
v 0.000000 -1.925553 3.020712
v -0.286349 -0.967937 3.020712
v -1.854518 -0.010322 3.020712
v 0.286349 0.947292 3.020712
v 1.854518 -0.010322 3.020712
v 0.259739 -0.878945 3.071461
v 0.112949 1.904907 3.020712
v -0.112949 -1.925553 3.020712
v -0.102452 1.726924 3.071461
v -0.259739 0.858301 3.071461
v -0.286349 0.947292 3.102698
v -0.112949 1.904907 3.102698
v 0.286349 -0.967937 3.102698
v 0.112949 -1.925553 3.102698
v 0.000000 1.904907 3.102698
v 0.000000 -1.925553 3.102698
v -0.286349 -0.967937 3.102698
v -1.854518 -0.010323 3.102698
v 0.286349 0.947292 3.102698
v 1.854518 -0.010323 3.102698
v 0.112949 1.904907 3.102698
v -0.112949 -1.925553 3.102698
v 0.102452 -1.747569 3.071461
v 0.000000 1.726924 3.071461
v 0.000000 -1.747569 3.071461
v -0.259739 -0.878945 3.071461
v -1.682177 -0.010322 3.071461
v 0.259739 0.858301 3.071461
v 1.682177 -0.010322 3.071461
v 0.000000 -0.010322 3.071461
v 0.102452 1.726924 3.071461
v -0.102452 -1.747569 3.071461
v 0.000000 0.858301 3.071461
v 0.000000 -0.878945 3.071461
vt 0.5755 0.6906
vt 0.5903 0.6023
vt 0.6094 0.6219
vt 0.6282 0.6415
vt 0.5979 0.7138
vt 0.7276 0.6064
vt 0.6957 0.7117
vt 0.6770 0.6923
vt 0.7183 0.5967
vt 0.7142 0.7311
vt 0.6485 0.7666
vt 0.6267 0.7438
vt 0.8891 0.7665
vt 0.9098 0.7894
vt 0.8302 0.7912
vt 0.8262 0.7868
vt 0.6126 0.7290
vt 0.7162 0.5686
vt 0.8541 0.7287
vt 0.9585 0.5683
vt 0.9608 0.5964
vt 0.9198 0.6921
vt 0.8684 0.7437
vt 0.8399 0.7137
vt 0.8195 0.7796
vt 0.8168 0.7767
vt 0.8321 0.6022
vt 0.8167 0.6906
vt 0.7935 0.6675
vt 0.7928 0.5630
vt 0.8124 0.5826
vt 0.9055 0.5415
vt 0.8951 0.5317
vt 0.9549 0.7309
vt 0.9725 0.7503
vt 0.9900 0.7697
vt 0.9374 0.7115
vt 0.9855 0.6254
vt 0.9789 0.5312
vt 0.9938 0.5063
vt 0.9938 0.6351
vt 0.5831 0.9249
vt 0.5835 0.8791
vt 0.5941 0.8688
vt 0.5942 0.9320
vt 0.9256 0.5620
vt 0.8517 0.6217
vt 0.9158 0.5515
vt 0.8714 0.6413
vt 0.5530 0.6674
vt 0.5718 0.7721
vt 0.5675 0.7677
vt 0.8123 0.7723
vt 0.8079 0.7679
vt 0.6703 0.7893
vt 0.5900 0.7911
vt 0.5858 0.7867
vt 0.9333 0.5746
vt 0.6939 0.5713
vt 0.5816 0.7823
vt 0.5789 0.7795
vt 0.5761 0.7766
vt 0.7512 0.7697
vt 0.7327 0.7504
vt 0.6845 0.5615
vt 0.7249 0.5547
vt 0.6651 0.5416
vt 0.7392 0.5313
vt 0.7315 0.5438
vt 0.6748 0.5515
vt 0.7458 0.6255
vt 0.7367 0.6159
vt 0.5523 0.5629
vt 0.5713 0.5826
vt 0.6276 0.8564
vt 0.6276 0.9391
vt 0.6165 0.9320
vt 0.6164 0.8688
vt 0.7549 0.5063
vt 0.7549 0.6350
vt 0.6555 0.5316
vt 0.9663 0.5544
vt 0.9721 0.5437
vt 0.9690 0.6061
vt 0.9773 0.6157
vt 0.5720 0.9177
vt 0.5719 0.8931
vt 0.6053 0.8564
vt 0.6053 0.9391
vt 0.6053 0.9249
vt 0.6058 0.8791
vt 0.6064 0.8538
vt 0.5686 0.8144
vt 0.6416 0.9079
vt 0.6380 0.9104
vt 0.6292 0.8726
vt 0.6416 0.8589
vt 0.6670 0.8580
vt 0.6672 0.8564
vt 0.6672 0.9013
vt 0.6573 0.8928
vt 0.5546 0.7998
vt 0.5158 0.7596
vt 0.8464 0.8540
vt 0.8105 0.8143
vt 0.6555 0.9079
vt 0.6520 0.9104
vt 0.6432 0.8726
vt 0.6555 0.8589
vt 0.5622 0.8075
vt 0.5594 0.8046
vt 0.5649 0.8103
vt 0.8222 0.7824
vt 0.6048 0.8564
vt 0.5670 0.8169
vt 0.6276 0.8701
vt 0.6399 0.8564
vt 0.6654 0.9035
vt 0.6555 0.8951
vt 0.5530 0.8024
vt 0.5141 0.7622
vt 0.8448 0.8565
vt 0.8089 0.8169
vt 0.6416 0.8701
vt 0.6539 0.8564
vt 0.5605 0.8100
vt 0.5578 0.8072
vt 0.5633 0.8129
vt 0.7966 0.7998
vt 0.7566 0.7598
vt 0.6786 0.8580
vt 0.6788 0.8564
vt 0.6788 0.9013
vt 0.6690 0.8928
vt 0.8084 0.8101
vt 0.8057 0.8072
vt 0.8029 0.8044
vt 0.5339 0.9014
vt 0.5719 0.8564
vt 0.5692 0.8624
vt 0.5348 0.9032
vt 0.5177 0.8977
vt 0.5200 0.8999
vt 0.5250 0.9214
vt 0.5141 0.9056
vt 0.5168 0.9071
vt 0.5267 0.9214
vt 0.5141 0.9859
vt 0.5168 0.9799
vt 0.5521 0.9409
vt 0.5513 0.9390
vt 0.5684 0.9445
vt 0.5660 0.9424
vt 0.5159 0.9017
vt 0.5184 0.9035
vt 0.7950 0.8024
vt 0.7549 0.7624
vt 0.6770 0.9035
vt 0.6672 0.8951
vt 0.8068 0.8127
vt 0.8040 0.8098
vt 0.8013 0.8069
vt 0.5307 0.9123
vt 0.5553 0.9300
vt 0.5430 0.9211
vt 0.5593 0.9209
vt 0.5692 0.9352
vt 0.5676 0.9388
vt 0.5610 0.9209
vt 0.5719 0.9367
vt 0.5701 0.9406
vn -0.4067 -0.8355 0.3696
vn 0.2182 -0.9743 -0.0565
vn 0.4067 -0.8355 0.3696
vn -0.4523 0.7144 0.5340
vn 0.2563 -0.9643 0.0660
vn -0.8924 0.4435 0.0835
vn 0.7177 0.4641 0.5192
vn 0.4884 0.7715 0.4077
vn 0.5893 0.6982 -0.4065
vn -0.4884 0.7715 0.4077
vn -0.5732 0.6436 -0.5071
vn -0.6353 0.4683 -0.6141
vn 0.6243 0.7396 -0.2513
vn -0.4523 -0.7144 0.5340
vn 0.4523 0.7144 0.5340
vn 0.4523 -0.7144 0.5340
vn 0.8924 0.4435 0.0835
vn -0.2563 -0.9643 0.0660
vn 0.4711 -0.6853 0.5554
vn 0.4884 -0.7715 0.4077
vn -0.4903 -0.7897 -0.3688
vn -0.6196 -0.4948 -0.6093
vn 0.6084 -0.7207 -0.3323
vn -0.4884 -0.7715 0.4077
vn 0.6196 -0.4948 -0.6093
vn 0.5732 -0.6436 -0.5071
vn 0.5893 -0.6982 -0.4065
vn -0.6084 -0.7207 -0.3323
vn -0.5893 -0.6982 -0.4065
vn -0.5732 -0.6436 -0.5071
vn -0.2182 -0.9743 -0.0565
vn -0.6243 -0.7396 -0.2513
vn -0.6353 -0.4683 -0.6141
vn 0.6353 0.4683 -0.6141
vn 0.4931 0.6378 -0.5916
vn 0.6362 0.7537 -0.1647
vn -0.6243 0.7396 -0.2513
vn -0.6362 0.7537 -0.1647
vn -0.4931 0.6378 -0.5916
vn -0.5893 0.6982 -0.4065
vn -0.6084 0.7207 -0.3323
vn -0.6196 0.4948 -0.6093
vn 0.5732 0.6436 -0.5071
vn 0.6196 0.4948 -0.6093
vn 0.6084 0.7207 -0.3323
vn 0.4903 -0.7897 -0.3688
vn 0.6353 -0.4683 -0.6141
vn 0.6243 -0.7396 -0.2513
vn 0.4034 -0.6582 -0.6356
vn 0.8687 -0.2822 -0.4071
vn -0.8687 -0.2822 -0.4071
vn -0.4034 -0.6582 -0.6356
vn -0.4034 0.6582 -0.6356
vn -0.8687 0.2822 -0.4071
vn 0.0000 -0.4613 -0.8872
vn -0.4711 -0.6853 0.5554
vn -0.7177 0.4641 0.5192
vn 0.5212 -0.8535 -0.0000
vn 0.9840 -0.1782 0.0000
vn -0.9840 -0.1782 0.0000
vn -0.5212 -0.8535 -0.0000
vn -0.5212 0.8535 0.0000
vn -0.9840 0.1782 0.0000
vn 0.0000 -1.0000 0.0000
vn 0.4034 0.6582 -0.6356
vn 0.8687 0.2822 -0.4071
vn 0.0000 0.4613 -0.8872
vn -0.1712 0.2803 0.9445
vn -0.5869 0.1063 0.8027
vn 0.5869 0.1063 0.8027
vn 0.1712 0.2803 0.9445
vn 0.1712 -0.2803 0.9445
vn 0.5869 -0.1063 0.8027
vn 0.0000 0.1729 0.9849
vn 0.5212 0.8535 0.0000
vn 0.9840 0.1782 0.0000
vn 0.0000 1.0000 0.0000
vn 0.0000 0.0000 1.0000
vn -0.1712 -0.2803 0.9445
vn -0.5869 -0.1063 0.8027
vn 0.0000 -0.1729 0.9849
usemtl None
s off
f 21/1/1 14/2/1 31/3/1 3/4/1 1/5/1
f 60/6/2 33/7/2 7/8/2 41/9/2
f 16/10/3 18/11/3 5/12/3 7/8/3 33/7/3
f 13/13/4 9/14/4 68/15/4 61/16/4
f 20/17/5 17/18/5 41/9/5 7/8/5 5/12/5
f 19/19/6 15/20/6 39/21/6 4/22/6 2/23/6
f 6/24/7 19/19/7 65/25/7 71/26/7
f 23/27/8 24/28/8 12/29/8 11/30/8 36/31/8
f 59/32/9 36/31/9 11/30/9 44/33/9
f 13/13/10 22/34/10 35/35/10 10/36/10 9/14/10
f 2/23/10 4/22/10 42/37/10 22/34/10 13/13/10
f 58/38/11 45/39/11 26/40/11 37/41/11
f 57/42/12 46/43/12 27/44/12 47/45/12
f 56/46/13 43/47/13 23/27/13 48/48/13
f 8/49/8 6/24/8 24/28/8 23/27/8 43/47/8
f 9/50/14 21/1/14 67/51/14 68/52/14
f 12/29/15 24/28/15 69/53/15 70/54/15
f 18/11/16 12/55/16 70/56/16 63/57/16
f 6/24/17 8/49/17 32/58/17 15/20/17 19/19/17
f 1/5/18 3/4/18 34/59/18 17/18/18 20/17/18
f 5/12/16 18/11/16 63/57/16 64/60/16
f 20/17/19 5/12/19 64/60/19 66/61/19
f 21/1/14 1/5/14 72/62/14 67/51/14
f 11/63/20 12/55/20 18/11/20 16/10/20 40/64/20
f 55/65/21 49/66/21 17/18/21 34/59/21
f 54/67/22 50/68/22 30/69/22 51/70/22
f 53/71/23 40/64/23 16/10/23 52/72/23
f 9/50/24 10/73/24 38/74/24 14/2/24 21/1/24
f 50/75/25 53/76/25 52/77/25 30/78/25
f 26/79/26 44/80/26 53/71/26 50/68/26
f 44/80/27 11/63/27 40/64/27 53/71/27
f 38/74/28 54/67/28 51/70/28 14/2/28
f 10/73/29 37/81/29 54/67/29 38/74/29
f 37/81/30 26/79/30 50/68/30 54/67/30
f 31/3/31 55/65/31 34/59/31 3/4/31
f 14/2/32 51/70/32 55/65/32 31/3/32
f 51/70/33 30/69/33 49/66/33 55/65/33
f 46/82/34 56/46/34 48/48/34 27/83/34
f 15/20/35 32/58/35 56/46/35 46/82/35
f 32/58/36 8/49/36 43/47/36 56/46/36
f 42/37/37 57/84/37 47/85/37 22/34/37
f 4/22/38 39/21/38 57/84/38 42/37/38
f 39/86/39 15/87/39 46/43/39 57/42/39
f 35/35/40 58/38/40 37/41/40 10/36/40
f 22/34/41 47/85/41 58/38/41 35/35/41
f 47/45/42 27/44/42 45/88/42 58/89/42
f 45/39/43 59/32/43 44/33/43 26/40/43
f 27/83/44 48/48/44 59/32/44 45/39/44
f 48/48/45 23/27/45 36/31/45 59/32/45
f 49/66/46 60/6/46 41/9/46 17/18/46
f 30/78/47 52/77/47 60/90/47 49/91/47
f 52/72/48 16/10/48 33/7/48 60/6/48
f 63/57/49 70/56/49 79/92/49 25/93/49
f 64/94/50 63/95/50 25/96/50 73/97/50
f 67/98/51 72/99/51 82/100/51 76/101/51
f 68/52/52 67/51/52 76/102/52 77/103/52
f 61/16/53 68/15/53 77/104/53 29/105/53
f 62/106/54 61/107/54 29/108/54 28/109/54
f 72/62/55 66/61/55 75/110/55 82/111/55
f 66/61/55 64/60/55 73/112/55 75/110/55
f 1/5/56 20/17/56 66/61/56 72/62/56
f 19/19/57 2/23/57 62/113/57 65/25/57
f 2/23/4 13/13/4 61/16/4 62/113/4
f 24/28/15 6/24/15 71/26/15 69/53/15
f 25/93/58 79/92/58 94/114/58 87/115/58
f 73/97/59 25/96/59 87/116/59 88/117/59
f 76/101/60 82/100/60 96/118/60 91/119/60
f 77/103/61 76/102/61 91/120/61 92/121/61
f 29/105/62 77/104/62 92/122/62 85/123/62
f 28/109/63 29/108/63 85/124/63 86/125/63
f 82/111/64 75/110/64 90/126/64 96/127/64
f 75/110/64 73/112/64 88/128/64 90/126/64
f 70/54/65 69/53/65 78/129/65 79/130/65
f 69/131/66 71/132/66 81/133/66 78/134/66
f 65/25/67 62/113/67 28/135/67 74/136/67
f 71/26/67 65/25/67 74/136/67 81/137/67
f 87/138/68 94/139/68 103/140/68 80/141/68
f 88/142/69 87/138/69 80/141/69 97/143/69
f 91/144/70 96/145/70 106/146/70 100/147/70
f 92/148/71 91/144/71 100/147/71 101/149/71
f 85/150/72 92/148/72 101/149/72 84/151/72
f 86/152/73 85/150/73 84/151/73 83/153/73
f 96/145/74 90/154/74 99/155/74 106/146/74
f 90/154/74 88/142/74 97/143/74 99/155/74
f 79/130/75 78/129/75 93/156/75 94/157/75
f 78/134/76 81/133/76 95/158/76 93/159/76
f 74/136/77 28/135/77 86/160/77 89/161/77
f 81/137/77 74/136/77 89/161/77 95/162/77
f 108/163/78 100/147/78 106/146/78 99/155/78
f 107/164/78 84/151/78 101/149/78 104/165/78
f 102/166/78 107/164/78 104/165/78 103/140/78
f 105/167/78 98/168/78 107/164/78 102/166/78
f 98/168/78 83/153/78 84/151/78 107/164/78
f 80/141/78 108/163/78 99/155/78 97/143/78
f 103/140/78 104/165/78 108/163/78 80/141/78
f 104/165/78 101/149/78 100/147/78 108/163/78
f 94/139/79 93/169/79 102/166/79 103/140/79
f 93/169/80 95/170/80 105/167/80 102/166/80
f 89/171/81 86/152/81 83/153/81 98/168/81
f 95/170/81 89/171/81 98/168/81 105/167/81
