# Blender v2.77 (sub 0) OBJ File: 'ship1.blend'
# www.blender.org
mtllib ship1.mtl
o Ship1_Cube.001
v 0.364641 0.006297 -0.495121
v 0.364641 1.751035 -0.495121
v 0.618247 -0.994048 1.504879
v 0.618247 2.548381 1.504879
v -0.364641 0.006297 -0.495121
v -0.364641 1.751035 -0.495121
v -0.618247 -0.994048 1.504879
v -0.618247 2.548381 1.504879
v 1.484243 0.604591 -0.495121
v 3.632149 2.042143 1.504878
v -3.632148 2.042143 1.504879
v -1.484243 0.604591 -0.495121
v 0.924442 1.177813 -0.495121
v 1.567387 0.234505 1.504879
v 0.000000 4.470170 2.317825
v -1.567386 0.234505 1.504879
v 0.000001 -1.834320 4.674895
v -0.924442 0.031368 -0.495121
v 0.000000 3.672824 0.251449
v -0.000000 -1.267086 -0.495121
v 0.924442 0.031368 -0.495121
v 1.567387 1.576486 1.504879
v -1.567386 1.576486 1.504879
v -0.924442 1.177813 -0.495121
v -0.177035 -0.353024 -3.020712
v 0.000001 0.604591 6.660259
v 0.000001 1.576487 5.461743
v 0.069830 2.519820 -3.020712
v 0.177034 1.562205 -3.020712
v 0.000001 -0.021487 5.461743
v 1.092817 -0.080063 1.504879
v -0.309123 2.548381 4.176929
v -1.092816 -0.080063 1.504879
v 0.309124 -1.624480 4.176929
v 2.041956 1.090538 1.504879
v -2.041956 1.090538 1.504879
v 1.258264 0.604591 4.176929
v 2.041956 0.447158 1.504879
v 0.309124 2.548381 4.176929
v -2.041956 0.447158 1.504879
v -0.309123 -1.590326 4.176929
v 1.092817 2.062433 1.504879
v -1.092816 2.062433 1.504879
v -1.258262 0.604591 4.176929
v 0.000001 1.090539 5.860683
v 0.000001 2.062433 5.117589
v 0.783694 1.576486 4.176929
v -0.783693 1.576486 4.176929
v 0.000001 -0.300684 5.117589
v 0.000001 0.118642 5.860683
v 0.783694 -0.021487 4.176929
v -0.783693 -0.021487 4.176929
v -1.020977 0.118643 4.176929
v 1.020979 0.118643 4.176929
v 0.546409 -0.300684 4.176929
v -0.546408 2.062433 4.176929
v 0.546409 2.062433 4.176929
v 1.020979 1.090539 4.176929
v -1.020977 1.090539 4.176929
v -0.546408 -0.300684 4.176929
v 0.177034 0.714365 -2.139023
v 0.069830 0.824139 -2.139024
v -0.177035 0.494816 -2.139024
v -0.069831 0.385042 -2.139023
v -0.000000 0.824139 -2.139024
v -0.000000 0.385042 -2.139023
v 0.177034 0.494816 -2.139024
v 0.284238 0.604590 -2.139024
v -0.177035 0.714365 -2.139023
v -0.284239 0.604590 -2.139024
v -0.069831 0.824139 -2.139024
v 0.069830 0.385042 -2.139023
v -0.069831 -1.310640 -3.020712
v -0.000000 2.519820 -3.020712
v -0.000000 -1.310640 -3.020712
v 0.177034 -0.353024 -3.020712
v 1.146549 0.604591 -3.020712
v -0.177035 1.562205 -3.020712
v -1.146550 0.604591 -3.020712
v -0.160583 -0.264033 -3.071461
v -0.069831 2.519820 -3.020712
v 0.069830 -1.310640 -3.020712
v 0.063340 2.341837 -3.071461
v 0.160582 1.473214 -3.071461
v 0.177034 1.562205 -3.102698
v 0.069830 2.519820 -3.102698
v -0.177035 -0.353024 -3.102698
v -0.069831 -1.310640 -3.102698
v -0.000000 2.519820 -3.102698
v -0.000000 -1.310640 -3.102698
v 0.177034 -0.353024 -3.102698
v 1.146549 0.604590 -3.102699
v -0.177035 1.562205 -3.102698
v -1.146550 0.604590 -3.102698
v -0.069831 2.519820 -3.102698
v 0.069830 -1.310640 -3.102698
v -0.063341 -1.132656 -3.071461
v -0.000000 2.341837 -3.071461
v -0.000000 -1.132656 -3.071461
v 0.160582 -0.264033 -3.071461
v 1.040000 0.604591 -3.071461
v -0.160583 1.473214 -3.071461
v -1.040001 0.604591 -3.071461
v -0.000000 0.604591 -3.071461
v -0.063341 2.341837 -3.071461
v 0.063340 -1.132656 -3.071461
v -0.000000 1.473214 -3.071461
v -0.000000 -0.264033 -3.071461
vt 0.5755 0.6906
vt 0.5903 0.6023
vt 0.6094 0.6219
vt 0.6282 0.6415
vt 0.5979 0.7138
vt 0.7276 0.6064
vt 0.6957 0.7117
vt 0.6770 0.6923
vt 0.7183 0.5967
vt 0.7142 0.7311
vt 0.6485 0.7666
vt 0.6267 0.7438
vt 0.8891 0.7665
vt 0.9098 0.7894
vt 0.8302 0.7912
vt 0.8262 0.7868
vt 0.6126 0.7290
vt 0.7162 0.5686
vt 0.8541 0.7287
vt 0.9585 0.5683
vt 0.9608 0.5964
vt 0.9198 0.6921
vt 0.8684 0.7437
vt 0.8399 0.7137
vt 0.8195 0.7796
vt 0.8168 0.7767
vt 0.8321 0.6022
vt 0.8167 0.6906
vt 0.7935 0.6675
vt 0.7928 0.5630
vt 0.8124 0.5826
vt 0.9055 0.5415
vt 0.8951 0.5317
vt 0.9549 0.7309
vt 0.9725 0.7503
vt 0.9900 0.7697
vt 0.9374 0.7115
vt 0.9855 0.6254
vt 0.9789 0.5312
vt 0.9938 0.5063
vt 0.9938 0.6351
vt 0.5831 0.9249
vt 0.5835 0.8791
vt 0.5941 0.8688
vt 0.5942 0.9320
vt 0.9256 0.5620
vt 0.8517 0.6217
vt 0.9158 0.5515
vt 0.8714 0.6413
vt 0.5530 0.6674
vt 0.5718 0.7721
vt 0.5675 0.7677
vt 0.8123 0.7723
vt 0.8079 0.7679
vt 0.6703 0.7893
vt 0.5900 0.7911
vt 0.5858 0.7867
vt 0.9333 0.5746
vt 0.6939 0.5713
vt 0.5816 0.7823
vt 0.5789 0.7795
vt 0.5761 0.7766
vt 0.7512 0.7697
vt 0.7327 0.7504
vt 0.6845 0.5615
vt 0.7249 0.5547
vt 0.6651 0.5416
vt 0.7392 0.5313
vt 0.7315 0.5438
vt 0.6748 0.5515
vt 0.7458 0.6255
vt 0.7367 0.6159
vt 0.5523 0.5629
vt 0.5713 0.5826
vt 0.6276 0.8564
vt 0.6276 0.9391
vt 0.6165 0.9320
vt 0.6164 0.8688
vt 0.7549 0.5063
vt 0.7549 0.6350
vt 0.6555 0.5316
vt 0.9663 0.5544
vt 0.9721 0.5437
vt 0.9690 0.6061
vt 0.9773 0.6157
vt 0.5720 0.9177
vt 0.5719 0.8931
vt 0.6053 0.8564
vt 0.6053 0.9391
vt 0.6053 0.9249
vt 0.6058 0.8791
vt 0.6064 0.8538
vt 0.5686 0.8144
vt 0.6416 0.9079
vt 0.6380 0.9104
vt 0.6292 0.8726
vt 0.6416 0.8589
vt 0.6670 0.8580
vt 0.6672 0.8564
vt 0.6672 0.9013
vt 0.6573 0.8928
vt 0.5546 0.7998
vt 0.5158 0.7596
vt 0.8464 0.8540
vt 0.8105 0.8143
vt 0.6555 0.9079
vt 0.6520 0.9104
vt 0.6432 0.8726
vt 0.6555 0.8589
vt 0.5622 0.8075
vt 0.5594 0.8046
vt 0.5649 0.8103
vt 0.8222 0.7824
vt 0.6048 0.8564
vt 0.5670 0.8169
vt 0.6276 0.8701
vt 0.6399 0.8564
vt 0.6654 0.9035
vt 0.6555 0.8951
vt 0.5530 0.8024
vt 0.5141 0.7622
vt 0.8448 0.8565
vt 0.8089 0.8169
vt 0.6416 0.8701
vt 0.6539 0.8564
vt 0.5605 0.8100
vt 0.5578 0.8072
vt 0.5633 0.8129
vt 0.7966 0.7998
vt 0.7566 0.7598
vt 0.6786 0.8580
vt 0.6788 0.8564
vt 0.6788 0.9013
vt 0.6690 0.8928
vt 0.8084 0.8101
vt 0.8057 0.8072
vt 0.8029 0.8044
vt 0.5339 0.9014
vt 0.5719 0.8564
vt 0.5692 0.8624
vt 0.5348 0.9032
vt 0.5177 0.8977
vt 0.5200 0.8999
vt 0.5250 0.9214
vt 0.5141 0.9056
vt 0.5168 0.9071
vt 0.5267 0.9214
vt 0.5141 0.9859
vt 0.5168 0.9799
vt 0.5521 0.9409
vt 0.5513 0.9390
vt 0.5684 0.9445
vt 0.5660 0.9424
vt 0.5159 0.9017
vt 0.5184 0.9035
vt 0.7950 0.8024
vt 0.7549 0.7624
vt 0.6770 0.9035
vt 0.6672 0.8951
vt 0.8068 0.8127
vt 0.8040 0.8098
vt 0.8013 0.8069
vt 0.5307 0.9123
vt 0.5553 0.9300
vt 0.5430 0.9211
vt 0.5593 0.9209
vt 0.5692 0.9352
vt 0.5676 0.9388
vt 0.5610 0.9209
vt 0.5719 0.9367
vt 0.5701 0.9406
vn 0.6236 -0.7506 -0.2186
vn -0.9463 -0.3057 0.1048
vn -0.6236 -0.7506 -0.2186
vn 0.6342 0.6193 -0.4629
vn -0.7545 -0.6368 -0.1589
vn 0.9544 0.2933 -0.0552
vn -0.8575 0.3429 -0.3835
vn -0.0397 0.9684 -0.2464
vn 0.2456 0.9639 0.1033
vn 0.0397 0.9684 -0.2464
vn 0.6711 0.6554 -0.3464
vn 0.7493 0.5201 0.4099
vn 0.7994 0.3643 0.4778
vn -0.7910 0.5793 0.1969
vn -0.6711 0.6554 -0.3464
vn 0.6342 -0.6193 -0.4629
vn -0.6342 0.6193 -0.4629
vn -0.6342 -0.6193 -0.4629
vn -0.9544 0.2933 -0.0552
vn 0.7476 -0.6437 -0.1636
vn -0.1891 -0.9352 -0.2995
vn -0.9103 -0.3106 -0.2735
vn 0.1891 -0.9352 -0.2995
vn -0.6556 -0.7227 -0.2187
vn 0.8594 -0.1472 0.4896
vn 0.4822 -0.8256 0.2931
vn -0.4434 -0.8948 0.0519
vn 0.6556 -0.7227 -0.2187
vn -0.4822 -0.8256 0.2931
vn -0.7493 -0.5201 0.4099
vn -0.7273 -0.6387 0.2510
vn 0.4434 -0.8948 0.0519
vn 0.7273 -0.6387 0.2510
vn 0.7493 -0.5201 0.4099
vn 0.9478 -0.3015 0.1037
vn 0.6379 -0.7648 0.0906
vn 0.7095 -0.5628 0.4240
vn -0.7994 0.3643 0.4778
vn -0.6758 0.5404 0.5013
vn -0.8001 0.5860 0.1281
vn 0.7910 0.5793 0.1969
vn 0.8001 0.5860 0.1281
vn 0.6758 0.5404 0.5013
vn -0.2456 0.9639 0.1033
vn 0.7784 0.5701 0.2629
vn 0.7873 0.3887 0.4786
vn -0.7493 0.5201 0.4099
vn -0.7873 0.3887 0.4786
vn -0.7784 0.5701 0.2629
vn -0.8608 -0.1487 0.4867
vn -0.7095 -0.5628 0.4240
vn -0.6379 -0.7648 0.0906
vn -0.5806 -0.5857 0.5655
vn -0.9431 -0.1894 0.2733
vn 0.9431 -0.1894 0.2733
vn 0.5806 -0.5857 0.5655
vn 0.5806 0.5857 0.5655
vn 0.9431 0.1894 0.2733
vn 0.0000 -0.4613 0.8872
vn 0.9103 -0.3106 -0.2735
vn 0.8575 0.3429 -0.3835
vn -0.7027 -0.7115 0.0000
vn -0.9938 -0.1113 0.0000
vn 0.9938 -0.1113 -0.0000
vn 0.7027 -0.7115 0.0000
vn 0.7027 0.7115 -0.0000
vn 0.9938 0.1113 -0.0000
vn 0.0000 -1.0000 0.0000
vn -0.5806 0.5857 0.5655
vn -0.9431 0.1894 0.2733
vn 0.0000 0.4613 0.8872
vn 0.2706 0.2739 -0.9229
vn 0.7608 0.0852 -0.6434
vn -0.7608 0.0852 -0.6434
vn -0.2706 0.2739 -0.9229
vn -0.2706 -0.2739 -0.9229
vn -0.7608 -0.0852 -0.6434
vn 0.0000 0.1729 -0.9849
vn -0.7027 0.7115 -0.0000
vn -0.9938 0.1113 0.0000
vn 0.0000 1.0000 0.0000
vn 0.0000 0.0000 -1.0000
vn 0.2706 -0.2739 -0.9229
vn 0.7608 -0.0852 -0.6434
vn 0.0000 -0.1729 -0.9849
usemtl None
s off
f 21/1/1 14/2/1 31/3/1 3/4/1 1/5/1
f 60/6/2 33/7/2 7/8/2 41/9/2
f 16/10/3 18/11/3 5/12/3 7/8/3 33/7/3
f 13/13/4 9/14/4 68/15/4 61/16/4
f 20/17/5 17/18/5 41/9/5 7/8/5 5/12/5
f 19/19/6 15/20/6 39/21/6 4/22/6 2/23/6
f 6/24/7 19/19/7 65/25/7 71/26/7
f 23/27/8 24/28/8 12/29/8 11/30/8 36/31/8
f 59/32/9 36/31/9 11/30/9 44/33/9
f 13/13/10 22/34/10 35/35/10 10/36/10 9/14/10
f 2/23/11 4/22/11 42/37/11 22/34/11 13/13/11
f 58/38/12 45/39/12 26/40/12 37/41/12
f 57/42/13 46/43/13 27/44/13 47/45/13
f 56/46/14 43/47/14 23/27/14 48/48/14
f 8/49/15 6/24/15 24/28/15 23/27/15 43/47/15
f 9/50/16 21/1/16 67/51/16 68/52/16
f 12/29/17 24/28/17 69/53/17 70/54/17
f 18/11/18 12/55/18 70/56/18 63/57/18
f 6/24/19 8/49/19 32/58/19 15/20/19 19/19/19
f 1/5/20 3/4/20 34/59/20 17/18/20 20/17/20
f 5/12/21 18/11/21 63/57/21 64/60/21
f 20/17/22 5/12/22 64/60/22 66/61/22
f 21/1/23 1/5/23 72/62/23 67/51/23
f 11/63/24 12/55/24 18/11/24 16/10/24 40/64/24
f 55/65/25 49/66/25 17/18/25 34/59/25
f 54/67/26 50/68/26 30/69/26 51/70/26
f 53/71/27 40/64/27 16/10/27 52/72/27
f 9/50/28 10/73/28 38/74/28 14/2/28 21/1/28
f 50/75/29 53/76/29 52/77/29 30/78/29
f 26/79/30 44/80/30 53/71/30 50/68/30
f 44/80/31 11/63/31 40/64/31 53/71/31
f 38/74/32 54/67/32 51/70/32 14/2/32
f 10/73/33 37/81/33 54/67/33 38/74/33
f 37/81/34 26/79/34 50/68/34 54/67/34
f 31/3/35 55/65/35 34/59/35 3/4/35
f 14/2/36 51/70/36 55/65/36 31/3/36
f 51/70/37 30/69/37 49/66/37 55/65/37
f 46/82/38 56/46/38 48/48/38 27/83/38
f 15/20/39 32/58/39 56/46/39 46/82/39
f 32/58/40 8/49/40 43/47/40 56/46/40
f 42/37/41 57/84/41 47/85/41 22/34/41
f 4/22/42 39/21/42 57/84/42 42/37/42
f 39/86/43 15/87/43 46/43/43 57/42/43
f 35/35/44 58/38/44 37/41/44 10/36/44
f 22/34/45 47/85/45 58/38/45 35/35/45
f 47/45/46 27/44/46 45/88/46 58/89/46
f 45/39/47 59/32/47 44/33/47 26/40/47
f 27/83/48 48/48/48 59/32/48 45/39/48
f 48/48/49 23/27/49 36/31/49 59/32/49
f 49/66/50 60/6/50 41/9/50 17/18/50
f 30/78/51 52/77/51 60/90/51 49/91/51
f 52/72/52 16/10/52 33/7/52 60/6/52
f 63/57/53 70/56/53 79/92/53 25/93/53
f 64/94/54 63/95/54 25/96/54 73/97/54
f 67/98/55 72/99/55 82/100/55 76/101/55
f 68/52/56 67/51/56 76/102/56 77/103/56
f 61/16/57 68/15/57 77/104/57 29/105/57
f 62/106/58 61/107/58 29/108/58 28/109/58
f 72/62/59 66/61/59 75/110/59 82/111/59
f 66/61/59 64/60/59 73/112/59 75/110/59
f 1/5/60 20/17/60 66/61/60 72/62/60
f 19/19/61 2/23/61 62/113/61 65/25/61
f 2/23/4 13/13/4 61/16/4 62/113/4
f 24/28/17 6/24/17 71/26/17 69/53/17
f 25/93/62 79/92/62 94/114/62 87/115/62
f 73/97/63 25/96/63 87/116/63 88/117/63
f 76/101/64 82/100/64 96/118/64 91/119/64
f 77/103/65 76/102/65 91/120/65 92/121/65
f 29/105/66 77/104/66 92/122/66 85/123/66
f 28/109/67 29/108/67 85/124/67 86/125/67
f 82/111/68 75/110/68 90/126/68 96/127/68
f 75/110/68 73/112/68 88/128/68 90/126/68
f 70/54/69 69/53/69 78/129/69 79/130/69
f 69/131/70 71/132/70 81/133/70 78/134/70
f 65/25/71 62/113/71 28/135/71 74/136/71
f 71/26/71 65/25/71 74/136/71 81/137/71
f 87/138/72 94/139/72 103/140/72 80/141/72
f 88/142/73 87/138/73 80/141/73 97/143/73
f 91/144/74 96/145/74 106/146/74 100/147/74
f 92/148/75 91/144/75 100/147/75 101/149/75
f 85/150/76 92/148/76 101/149/76 84/151/76
f 86/152/77 85/150/77 84/151/77 83/153/77
f 96/145/78 90/154/78 99/155/78 106/146/78
f 90/154/78 88/142/78 97/143/78 99/155/78
f 79/130/79 78/129/79 93/156/79 94/157/79
f 78/134/80 81/133/80 95/158/80 93/159/80
f 74/136/81 28/135/81 86/160/81 89/161/81
f 81/137/81 74/136/81 89/161/81 95/162/81
f 108/163/82 100/147/82 106/146/82 99/155/82
f 107/164/82 84/151/82 101/149/82 104/165/82
f 102/166/82 107/164/82 104/165/82 103/140/82
f 105/167/82 98/168/82 107/164/82 102/166/82
f 98/168/82 83/153/82 84/151/82 107/164/82
f 80/141/82 108/163/82 99/155/82 97/143/82
f 103/140/82 104/165/82 108/163/82 80/141/82
f 104/165/82 101/149/82 100/147/82 108/163/82
f 94/139/83 93/169/83 102/166/83 103/140/83
f 93/169/84 95/170/84 105/167/84 102/166/84
f 89/171/85 86/152/85 83/153/85 98/168/85
f 95/170/85 89/171/85 98/168/85 105/167/85
